<?xml version="1.0" encoding="UTF-8" standalone="no"?>
<!-- Created with Inkscape (http://www.inkscape.org/) --><svg height="48px" id="svg11267" inkscape:output_extension="org.inkscape.output.svg.inkscape" inkscape:version="0.46" sodipodi:docname="edit-find-replace.svg" sodipodi:version="0.32" width="48px" xmlns="http://www.w3.org/2000/svg" xmlns:cc="http://creativecommons.org/ns#" xmlns:dc="http://purl.org/dc/elements/1.1/" xmlns:inkscape="http://www.inkscape.org/namespaces/inkscape" xmlns:rdf="http://www.w3.org/1999/02/22-rdf-syntax-ns#" xmlns:sodipodi="http://sodipodi.sourceforge.net/DTD/sodipodi-0.dtd" xmlns:svg="http://www.w3.org/2000/svg" xmlns:xlink="http://www.w3.org/1999/xlink">
  <metadata>
    <rdf:RDF xmlns:cc="http://web.resource.org/cc/" xmlns:dc="http://purl.org/dc/elements/1.1/" xmlns:rdf="http://www.w3.org/1999/02/22-rdf-syntax-ns#">
      <cc:Work rdf:about="">
        <dc:title></dc:title>
        <dc:description></dc:description>
        <dc:subject>
          <rdf:Bag>
            <rdf:li>unsorted</rdf:li>
          </rdf:Bag>
        </dc:subject>
        <dc:publisher>
          <cc:Agent rdf:about="http://www.openclipart.org/">
            <dc:title>Open Clip Art Library, Source: GNOME-Colors, Source: GNOME-Colors, Source: GNOME-Colors, Source: GNOME-Colors, Source: GNOME-Colors, Source: GNOME-Colors, Source: GNOME-Colors</dc:title>
          </cc:Agent>
        </dc:publisher>
        <dc:creator>
          <cc:Agent>
            <dc:title></dc:title>
          </cc:Agent>
        </dc:creator>
        <dc:rights>
          <cc:Agent>
            <dc:title></dc:title>
          </cc:Agent>
        </dc:rights>
        <dc:date></dc:date>
        <dc:format>image/svg+xml</dc:format>
        <dc:type rdf:resource="http://purl.org/dc/dcmitype/StillImage"/>
        <cc:license rdf:resource="http://creativecommons.org/licenses/GPL/2.0/"/>
        <dc:language>en</dc:language>
      </cc:Work>
    </rdf:RDF>
  </metadata>
  <defs id="defs11269">
    <linearGradient id="linearGradient4467">
      <stop id="stop4469" offset="0" style="stop-color:#ffffff;stop-opacity:1;"/>
      <stop id="stop4471" offset="1.0000000" style="stop-color:#ffffff;stop-opacity:0.24761905;"/>
    </linearGradient>
    <radialGradient cx="15.414371" cy="13.078408" fx="15.414371" fy="13.078408" gradientTransform="matrix(-1.622984,0,0,1.409633,46.166381,-6.347147)" gradientUnits="userSpaceOnUse" id="radialGradient1991" inkscape:collect="always" r="6.65625" xlink:href="#linearGradient4467"/>
    <linearGradient id="linearGradient4454">
      <stop id="stop4456" offset="0.0000000" style="stop-color:#729fcf;stop-opacity:0.20784314;"/>
      <stop id="stop4458" offset="1.0000000" style="stop-color:#729fcf;stop-opacity:0.67619050;"/>
    </linearGradient>
    <radialGradient cx="18.240929" cy="21.817987" fx="18.240929" fy="21.817987" gradientUnits="userSpaceOnUse" id="radialGradient2003" inkscape:collect="always" r="8.3085051" xlink:href="#linearGradient4454"/>
    <linearGradient id="linearGradient2366">
      <stop id="stop2368" offset="0" style="stop-color:#ffffff;stop-opacity:1;"/>
      <stop id="stop2374" offset="0.50000000" style="stop-color:#ffffff;stop-opacity:0.21904762;"/>
      <stop id="stop2370" offset="1.0000000" style="stop-color:#ffffff;stop-opacity:1.0000000;"/>
    </linearGradient>
    <linearGradient gradientUnits="userSpaceOnUse" id="linearGradient2005" inkscape:collect="always" x1="18.292673" x2="17.500893" xlink:href="#linearGradient2366" y1="13.602121" y2="25.743469"/>
    <linearGradient id="linearGradient2846">
      <stop id="stop2848" offset="0.0000000" style="stop-color:#8a8a8a;stop-opacity:1.0000000;"/>
      <stop id="stop2850" offset="1.0000000" style="stop-color:#484848;stop-opacity:1.0000000;"/>
    </linearGradient>
    <linearGradient gradientTransform="matrix(-0.678915,0,0,0.678572,31.635243,3.867701)" gradientUnits="userSpaceOnUse" id="linearGradient2001" inkscape:collect="always" x1="27.366341" x2="31.335964" xlink:href="#linearGradient2846" y1="26.580296" y2="30.557772"/>
    <linearGradient id="linearGradient3904" inkscape:collect="always">
      <stop id="stop3906" offset="0" style="stop-color:#000000;stop-opacity:1;"/>
      <stop id="stop3908" offset="1" style="stop-color:#000000;stop-opacity:0;"/>
    </linearGradient>
    <linearGradient gradientTransform="matrix(-0.9999494,0,0,1.0000027,33.350517,3.335417)" gradientUnits="userSpaceOnUse" id="linearGradient7497" inkscape:collect="always" x1="22.540768" x2="23.207554" xlink:href="#linearGradient3904" y1="21.90337" y2="22.570156"/>
    <linearGradient id="linearGradient3912" inkscape:collect="always">
      <stop id="stop3914" offset="0" style="stop-color:#888a85;stop-opacity:1"/>
      <stop id="stop3916" offset="1" style="stop-color:#d3d7cf"/>
    </linearGradient>
    <linearGradient gradientTransform="matrix(-0.6666333,0,0,0.6666688,34.017151,3.335417)" gradientUnits="userSpaceOnUse" id="linearGradient7493" inkscape:collect="always" x1="40.749702" x2="43.327663" xlink:href="#linearGradient3912" y1="41.369453" y2="37.705376"/>
    <linearGradient id="linearGradient2690" inkscape:collect="always">
      <stop id="stop2692" offset="0" style="stop-color:#2e3436"/>
      <stop id="stop2694" offset="1" style="stop-color:#555753"/>
    </linearGradient>
    <linearGradient gradientTransform="translate(0.9714494,0.9765495)" gradientUnits="userSpaceOnUse" id="linearGradient7491" inkscape:collect="always" x1="81.096306" x2="83.629295" xlink:href="#linearGradient2690" y1="57.148193" y2="54.615208"/>
    <linearGradient id="linearGradient2698">
      <stop id="stop2700" offset="0" style="stop-color:#888a85;stop-opacity:1"/>
      <stop id="stop2706" offset="0.70238096" style="stop-color:#a3a5a2;stop-opacity:1;"/>
      <stop id="stop2702" offset="1" style="stop-color:#888a85"/>
    </linearGradient>
    <linearGradient gradientTransform="translate(0.9714494,0.9765495)" gradientUnits="userSpaceOnUse" id="linearGradient7489" inkscape:collect="always" x1="81.332451" x2="82.919647" xlink:href="#linearGradient2698" y1="55.106758" y2="53.511261"/>
    <filter height="1.6870229" id="filter3286" inkscape:collect="always" width="1.2439024" x="-0.12195122" y="-0.34351143">
      <feGaussianBlur id="feGaussianBlur3288" inkscape:collect="always" stdDeviation="1.5088502"/>
    </filter>
    <linearGradient id="linearGradient3292">
      <stop id="stop3294" offset="0" style="stop-color:#000000;stop-opacity:1;"/>
      <stop id="stop3296" offset="0.30910534" style="stop-color:#000000;stop-opacity:0.49803922;"/>
      <stop id="stop3300" offset="0.34748977" style="stop-color:#000000;stop-opacity:0.24705882;"/>
      <stop id="stop3298" offset="1" style="stop-color:#000000;stop-opacity:0;"/>
    </linearGradient>
    <linearGradient gradientUnits="userSpaceOnUse" id="linearGradient3268" inkscape:collect="always" x1="31.19417" x2="1.5" xlink:href="#linearGradient3292" y1="30.503681" y2="19.961847"/>
    <linearGradient id="linearGradient4099-6-7" inkscape:collect="always">
      <stop id="stop4101-1-8" offset="0" style="stop-color:#dddddd;stop-opacity:1;"/>
      <stop id="stop4107-2-2" offset="0.34467545" style="stop-color:#ffffff;stop-opacity:1"/>
      <stop id="stop4109-5-7" offset="0.72694808" style="stop-color:#737373;stop-opacity:1"/>
      <stop id="stop4103-9-2" offset="1" style="stop-color:#bbbbbb;stop-opacity:1"/>
    </linearGradient>
    <linearGradient gradientTransform="matrix(0.1892115,-0.1892253,0.1892115,0.1892253,49.738733,-37.732231)" gradientUnits="userSpaceOnUse" id="linearGradient649" inkscape:collect="always" x1="-158.75" x2="-158.75" xlink:href="#linearGradient4099-6-7" y1="115.93846" y2="134.25"/>
    <linearGradient id="linearGradient4117-1-0" inkscape:collect="always">
      <stop id="stop4121-0-5" offset="0" style="stop-color:#f9a9a9;stop-opacity:1"/>
      <stop id="stop4119-1-6" offset="1" style="stop-color:#ab5f5f;stop-opacity:1"/>
    </linearGradient>
    <radialGradient cx="-138.83727" cy="128.00087" fx="-138.83727" fy="128.00087" gradientTransform="matrix(0.320394,-0.3203948,0.322414,0.3224148,50.518433,-74.157887)" gradientUnits="userSpaceOnUse" id="radialGradient691" inkscape:collect="always" r="9.1267023" xlink:href="#linearGradient4117-1-0"/>
    <linearGradient id="linearGradient6437" inkscape:collect="always">
      <stop id="stop6439" offset="0" style="stop-color:#e9b96e;stop-opacity:1"/>
      <stop id="stop6441" offset="1" style="stop-color:#ffffff;stop-opacity:1"/>
    </linearGradient>
    <linearGradient gradientUnits="userSpaceOnUse" id="linearGradient6488" inkscape:collect="always" x1="26.379272" x2="25.485056" xlink:href="#linearGradient6437" y1="34.389839" y2="32.714375"/>
    <linearGradient id="linearGradient2301" inkscape:collect="always">
      <stop id="stop2303" offset="0" style="stop-color:#ce5c00;stop-opacity:1"/>
      <stop id="stop2305" offset="1" style="stop-color:#ce5c00"/>
    </linearGradient>
    <linearGradient gradientTransform="translate(6.39225,12.18459)" gradientUnits="userSpaceOnUse" id="linearGradient6486" inkscape:collect="always" x1="23.447809" x2="22.810215" xlink:href="#linearGradient2301" y1="21.481258" y2="22.118853"/>
    <linearGradient id="linearGradient6445" inkscape:collect="always">
      <stop id="stop6447" offset="0" style="stop-color:#fcaf3e;stop-opacity:1"/>
      <stop id="stop6449" offset="1" style="stop-color:#ce5c00"/>
    </linearGradient>
    <linearGradient gradientTransform="translate(6.39225,12.18459)" gradientUnits="userSpaceOnUse" id="linearGradient6484" inkscape:collect="always" x1="28.078697" x2="30.432114" xlink:href="#linearGradient6445" y1="12.338078" y2="14.691495"/>
    <linearGradient id="linearGradient1813" inkscape:collect="always">
      <stop id="stop1815" offset="0" style="stop-color:#000000;stop-opacity:1;"/>
      <stop id="stop1817" offset="1" style="stop-color:#000000;stop-opacity:0;"/>
    </linearGradient>
    <linearGradient gradientTransform="matrix(1,0,0,0.415008,6.5485,26.7669)" gradientUnits="userSpaceOnUse" id="linearGradient6482" inkscape:collect="always" x1="18.1875" x2="32.9375" xlink:href="#linearGradient1813" y1="18.53828" y2="18.392296"/>
    <linearGradient id="linearGradient4333" inkscape:collect="always">
      <stop id="stop4335" offset="0" style="stop-color:black;stop-opacity:1;"/>
      <stop id="stop4337" offset="1" style="stop-color:black;stop-opacity:0;"/>
    </linearGradient>
    <radialGradient cx="37.375" cy="33.1875" fx="37.375" fy="33.1875" gradientTransform="matrix(1,0,0,0.226496,0,25.67067)" gradientUnits="userSpaceOnUse" id="radialGradient4339" inkscape:collect="always" r="14.625" xlink:href="#linearGradient4333"/>
    <linearGradient id="linearGradient3656" inkscape:collect="always">
      <stop id="stop3658" offset="0" style="stop-color:#ffffff;stop-opacity:1;"/>
      <stop id="stop3660" offset="1" style="stop-color:#ffffff;stop-opacity:0;"/>
    </linearGradient>
    <linearGradient gradientUnits="userSpaceOnUse" id="linearGradient5816" inkscape:collect="always" x1="-26.753757" x2="-24.75" xlink:href="#linearGradient3656" y1="11.566258" y2="9.687501"/>
    <linearGradient id="linearGradient3520" inkscape:collect="always">
      <stop id="stop3522" offset="0" style="stop-color:#000000;stop-opacity:0.41295547"/>
      <stop id="stop3524" offset="1" style="stop-color:#000000;stop-opacity:0;"/>
    </linearGradient>
    <linearGradient gradientTransform="matrix(0.9223058,0,0,0.9185751,-92.447368,61.3257)" gradientUnits="userSpaceOnUse" id="linearGradient5836" inkscape:collect="always" x1="-18.588562" x2="-28.789402" xlink:href="#linearGradient3520" y1="11.052948" y2="14.069944"/>
    <linearGradient id="linearGradient3671">
      <stop id="stop3673" offset="0" style="stop-color:#ffffff;stop-opacity:1;"/>
      <stop id="stop3691" offset="0.47533694" style="stop-color:#ffffff;stop-opacity:1;"/>
      <stop id="stop3675" offset="1" style="stop-color:#ffffff;stop-opacity:0;"/>
    </linearGradient>
    <radialGradient cx="-26.305403" cy="10.108011" fx="-26.305403" fy="10.108011" gradientTransform="matrix(0.4073362,-0.2798276,0.7510293,1.0932492,-115.18484,51.56213)" gradientUnits="userSpaceOnUse" id="radialGradient5839" inkscape:collect="always" r="7.0421038" xlink:href="#linearGradient3671"/>
    <linearGradient id="linearGradient6469" inkscape:collect="always">
      <stop id="stop6471" offset="0" style="stop-color:#000000;stop-opacity:1;"/>
      <stop id="stop6473" offset="1" style="stop-color:#000000;stop-opacity:0;"/>
    </linearGradient>
    <linearGradient gradientTransform="translate(-180,0)" gradientUnits="userSpaceOnUse" id="linearGradient6475" inkscape:collect="always" x1="58.282169" x2="61.181217" xlink:href="#linearGradient6469" y1="70.751839" y2="67.799171"/>
    <linearGradient id="linearGradient3741" inkscape:collect="always">
      <stop id="stop3743" offset="0" style="stop-color:#ffffff;stop-opacity:1;"/>
      <stop id="stop3745" offset="1" style="stop-color:#ffffff;stop-opacity:0;"/>
    </linearGradient>
    <radialGradient cx="4" cy="5.2999997" fx="4" fy="5.2999997" gradientTransform="matrix(1.8860258,0,0,1.1764706,-3.5441033,-4.2352941)" gradientUnits="userSpaceOnUse" id="radialGradient5810" inkscape:collect="always" r="17" xlink:href="#linearGradient3741"/>
    <linearGradient id="linearGradient3613" inkscape:collect="always">
      <stop id="stop3615" offset="0" style="stop-color:#888a85;stop-opacity:1"/>
      <stop id="stop3617" offset="1" style="stop-color:#babdb6;stop-opacity:1"/>
    </linearGradient>
    <linearGradient gradientTransform="translate(-90,60)" gradientUnits="userSpaceOnUse" id="linearGradient5845" inkscape:collect="always" x1="-47.5" x2="-62.75" xlink:href="#linearGradient3613" y1="49.020683" y2="-22.502075"/>
    <linearGradient id="linearGradient3683">
      <stop id="stop3685" offset="0" style="stop-color:#f6f6f5;stop-opacity:1;"/>
      <stop id="stop3689" offset="1" style="stop-color:#d3d7cf;stop-opacity:1"/>
    </linearGradient>
    <radialGradient cx="-30.249996" cy="35.357208" fx="-30.249996" fy="35.357208" gradientTransform="matrix(3.9957492,0,0,1.9350367,0.62141,28.832578)" gradientUnits="userSpaceOnUse" id="radialGradient5843" inkscape:collect="always" r="18.000002" xlink:href="#linearGradient3683"/>
    <linearGradient gradientUnits="userSpaceOnUse" id="linearGradient5804" inkscape:collect="always" x1="25.058096" x2="25.058096" xlink:href="#linearGradient3702" y1="47.027729" y2="39.999443"/>
    <radialGradient cx="4.9929786" cy="43.5" fx="4.9929786" fy="43.5" gradientTransform="matrix(2.003784,0,0,1.4,-20.01187,-104.4)" gradientUnits="userSpaceOnUse" id="radialGradient5802" inkscape:collect="always" r="2.5" xlink:href="#linearGradient3688"/>
    <radialGradient cx="4.9929786" cy="43.5" fx="4.9929786" fy="43.5" gradientTransform="matrix(2.003784,0,0,1.4,27.98813,-17.4)" gradientUnits="userSpaceOnUse" id="radialGradient5800" inkscape:collect="always" r="2.5" xlink:href="#linearGradient3688"/>
    <linearGradient id="linearGradient3702">
      <stop id="stop3704" offset="0" style="stop-color:black;stop-opacity:0;"/>
      <stop id="stop3710" offset="0.5" style="stop-color:black;stop-opacity:1;"/>
      <stop id="stop3706" offset="1" style="stop-color:black;stop-opacity:0;"/>
    </linearGradient>
    <linearGradient gradientUnits="userSpaceOnUse" id="linearGradient5798" inkscape:collect="always" x1="25.058096" x2="25.058096" xlink:href="#linearGradient3702" y1="47.027729" y2="39.999443"/>
    <radialGradient cx="4.9929786" cy="43.5" fx="4.9929786" fy="43.5" gradientTransform="matrix(2.003784,0,0,1.4,-20.01187,-104.4)" gradientUnits="userSpaceOnUse" id="radialGradient5796" inkscape:collect="always" r="2.5" xlink:href="#linearGradient3688"/>
    <linearGradient id="linearGradient3688" inkscape:collect="always">
      <stop id="stop3690" offset="0" style="stop-color:black;stop-opacity:1;"/>
      <stop id="stop3692" offset="1" style="stop-color:black;stop-opacity:0;"/>
    </linearGradient>
    <radialGradient cx="4.9929786" cy="43.5" fx="4.9929786" fy="43.5" gradientTransform="matrix(2.003784,0,0,1.4,27.98813,-17.4)" gradientUnits="userSpaceOnUse" id="radialGradient5794" inkscape:collect="always" r="2.5" xlink:href="#linearGradient3688"/>
  </defs>
  <sodipodi:namedview bordercolor="#666666" borderopacity="1.0" id="base" inkscape:current-layer="layer1" inkscape:cx="24" inkscape:cy="24" inkscape:document-units="px" inkscape:grid-bbox="true" inkscape:pageopacity="0.0" inkscape:pageshadow="2" inkscape:window-height="688" inkscape:window-width="641" inkscape:window-x="1037" inkscape:window-y="25" inkscape:zoom="7" pagecolor="#ffffff" showgrid="true"/>
  <g id="layer1" inkscape:groupmode="layer" inkscape:label="Layer 1">
    <g id="g6015" style="display:inline" transform="translate(150,-60)">
      <rect height="48" id="rect5504" style="opacity:0;fill:#000000;fill-opacity:1;stroke:none;stroke-width:1;stroke-miterlimit:4;stroke-dasharray:none;display:inline" width="48" x="-150" y="60"/>
      <g id="g5508" inkscape:label="Shadow" style="opacity:0.65587045;display:inline" transform="matrix(1.0464281,0,0,0.8888889,-151.18572,65.72224)">
        <g id="g5511" style="opacity:0.4" transform="matrix(1.052632,0,0,1.285713,-1.263158,-13.42854)">
          <rect height="7" id="rect5513" style="opacity:1;fill:url(#radialGradient5794);fill-opacity:1;stroke:none;stroke-width:1;stroke-linecap:round;stroke-linejoin:miter;stroke-miterlimit:4;stroke-dasharray:none;stroke-opacity:1" width="5" x="38" y="40"/>
          <rect height="7" id="rect5515" style="opacity:1;fill:url(#radialGradient5796);fill-opacity:1;stroke:none;stroke-width:1;stroke-linecap:round;stroke-linejoin:miter;stroke-miterlimit:4;stroke-dasharray:none;stroke-opacity:1" transform="scale(-1,-1)" width="5" x="-10" y="-47"/>
          <rect height="7.0000005" id="rect5517" style="opacity:1;fill:url(#linearGradient5798);fill-opacity:1;stroke:none;stroke-width:1;stroke-linecap:round;stroke-linejoin:miter;stroke-miterlimit:4;stroke-dasharray:none;stroke-opacity:1" width="28" x="10" y="40"/>
        </g>
      </g>
      <g id="g5519" inkscape:label="Shadow" style="display:inline" transform="matrix(0.9548466,0,0,0.5555562,-148.98776,79.888875)">
        <g id="g5521" style="opacity:0.4" transform="matrix(1.052632,0,0,1.285713,-1.263158,-13.42854)">
          <rect height="7" id="rect5523" style="opacity:1;fill:url(#radialGradient5800);fill-opacity:1;stroke:none;stroke-width:1;stroke-linecap:round;stroke-linejoin:miter;stroke-miterlimit:4;stroke-dasharray:none;stroke-opacity:1" width="5" x="38" y="40"/>
          <rect height="7" id="rect5525" style="opacity:1;fill:url(#radialGradient5802);fill-opacity:1;stroke:none;stroke-width:1;stroke-linecap:round;stroke-linejoin:miter;stroke-miterlimit:4;stroke-dasharray:none;stroke-opacity:1" transform="scale(-1,-1)" width="5" x="-10" y="-47"/>
          <rect height="7.0000005" id="rect5527" style="opacity:1;fill:url(#linearGradient5804);fill-opacity:1;stroke:none;stroke-width:1;stroke-linecap:round;stroke-linejoin:miter;stroke-miterlimit:4;stroke-dasharray:none;stroke-opacity:1" width="28" x="10" y="40"/>
        </g>
      </g>
      <path d="M -141.47614,63.5 C -141.47614,63.5 -124,63.5 -122.5,63.5 C -118.62295,63.572942 -116,66 -113.5,68.5 C -111,71 -108.89232,73.752625 -108.5,77.5 C -108.5,79 -108.5,102.47614 -108.5,102.47614 C -108.5,103.59736 -109.40264,104.5 -110.52385,104.5 L -141.47614,104.5 C -142.59736,104.5 -143.5,103.59736 -143.5,102.47614 L -143.5,65.523858 C -143.5,64.402641 -142.59736,63.5 -141.47614,63.5 z" id="path5529" sodipodi:nodetypes="ccsccccccc" style="fill:url(#radialGradient5843);fill-opacity:1;stroke:url(#linearGradient5845);stroke-width:1;stroke-miterlimit:4;display:inline"/>
      <path d="M 8.53125,4 C 7.6730803,4 7,4.6730802 7,5.53125 L 7,42.46875 C 7,43.32692 7.6730802,44 8.53125,44 L 39.46875,44 C 40.326919,44 41,43.326918 41,42.46875 C 41,42.46875 41,19 41,17.5 C 41,16.10803 40.513021,13.200521 38.65625,11.34375 C 36.65625,9.34375 35.65625,8.34375 33.65625,6.34375 C 31.799479,4.4869792 28.89197,4 27.5,4 C 26,4 8.53125,4 8.53125,4 z" id="path5531" inkscape:original="M 8.53125 3.5 C 7.410033 3.5 6.5 4.4100329 6.5 5.53125 L 6.5 42.46875 C 6.5 43.589967 7.4100329 44.5 8.53125 44.5 L 39.46875 44.5 C 40.589967 44.5 41.5 43.589966 41.5 42.46875 C 41.5 42.46875 41.5 19 41.5 17.5 C 41.5 16 41 13 39 11 C 37 9 36 8 34 6 C 32 4 29 3.5 27.5 3.5 C 26 3.5 8.5312499 3.5 8.53125 3.5 z " inkscape:radius="-0.4861359" sodipodi:type="inkscape:offset" style="opacity:0.68016196;fill:url(#radialGradient5810);fill-opacity:1;stroke:none;stroke-width:1;stroke-miterlimit:4;display:inline" transform="translate(-150,60)"/>
      <path d="M -138.59375,69.125 C -138.81243,69.125 -139,69.312565 -139,69.53125 C -139,69.749934 -138.81243,69.937499 -138.59375,69.9375 L -117.40625,69.9375 C -117.18757,69.9375 -117,69.749934 -117,69.53125 C -117,69.312566 -117.18757,69.125 -117.40625,69.125 L -138.59375,69.125 z M -138.53125,71.0625 C -138.79094,71.0625 -139,71.271563 -139,71.53125 C -139,71.790937 -138.79094,72 -138.53125,72 L -116.46875,72 C -116.20906,72 -116,71.790937 -116,71.53125 C -116,71.271563 -116.20906,71.0625 -116.46875,71.0625 L -138.53125,71.0625 z M -138.53125,73.0625 C -138.79094,73.0625 -139,73.271563 -139,73.53125 C -139,73.790937 -138.79094,74 -138.53125,74 L -113.34375,74 C -113.08406,74 -112.875,73.790937 -112.875,73.53125 C -112.875,73.271563 -113.08406,73.0625 -113.34375,73.0625 L -138.53125,73.0625 z M -138.53125,75.0625 C -138.79094,75.0625 -139,75.271563 -139,75.53125 C -139,75.790937 -138.79094,76 -138.53125,76 L -113.34375,76 C -113.08406,76 -112.875,75.790937 -112.875,75.53125 C -112.875,75.271563 -113.08406,75.0625 -113.34375,75.0625 L -138.53125,75.0625 z M -138.53125,77.0625 C -138.79094,77.0625 -139,77.271563 -139,77.53125 C -139,77.790937 -138.79094,78 -138.53125,78 L -113.34375,78 C -113.08406,78 -112.875,77.790937 -112.875,77.53125 C -112.875,77.271563 -113.08406,77.0625 -113.34375,77.0625 L -138.53125,77.0625 z" id="rect5857" style="opacity:0.15;fill:url(#linearGradient6475);fill-opacity:1;fill-rule:evenodd;stroke:none;stroke-width:0.99999982px;stroke-linecap:round;stroke-linejoin:round;marker:none;marker-start:none;marker-mid:none;marker-end:none;stroke-miterlimit:4;stroke-dasharray:none;stroke-dashoffset:0;stroke-opacity:1;visibility:visible;display:inline;overflow:visible"/>
      <path d="M -122.5,64 C -123.88889,64 -122.54207,64.497088 -121.15625,65.125 C -119.77043,65.752912 -116.18337,68.340052 -117,72 C -112.67669,71.569417 -110.32087,75.122378 -110,76.28125 C -109.67913,77.440122 -109,78.888889 -109,77.5 C -108.97167,73.694419 -111.84543,71.068299 -113.84375,68.84375 C -115.84207,66.619201 -118.84621,64.476761 -122.5,64 z" id="path5533" sodipodi:nodetypes="ccccczc" style="fill:url(#radialGradient5839);fill-opacity:1;stroke:none;stroke-width:1;stroke-miterlimit:4;display:inline"/>
      <path d="M -121.39912,65.014353 C -120.47682,65.014353 -118.39068,71.210015 -119.31298,75.343603 C -115.01802,74.915844 -110.4596,75.43178 -110,76.28125 C -110.32087,75.122378 -112.67669,71.569417 -117,72 C -116.13534,68.124761 -120.18657,65.382702 -121.39912,65.014353 z" id="path5535" sodipodi:nodetypes="ccccc" style="opacity:0.87854249;fill:url(#linearGradient5836);fill-opacity:1;stroke:none;stroke-width:1;stroke-miterlimit:4;display:inline"/>
      <path d="M -51.46875,4.5 C -52.051916,4.5 -52.5,4.9480842 -52.5,5.53125 L -52.5,42.46875 C -52.5,43.051915 -52.051914,43.5 -51.46875,43.5 L -20.53125,43.5 C -19.948085,43.5 -19.5,43.051914 -19.5,42.46875 C -19.5,42.46875 -19.5,19 -19.5,17.5 C -19.5,16.220971 -19.980469,13.394531 -21.6875,11.6875 C -23.6875,9.6875 -24.6875,8.6875 -26.6875,6.6875 C -28.394531,4.9804687 -31.220971,4.5 -32.5,4.5 C -34,4.5 -51.46875,4.5 -51.46875,4.5 z" id="path5537" inkscape:original="M -51.46875 3.5 C -52.589967 3.5 -53.5 4.4100329 -53.5 5.53125 L -53.5 42.46875 C -53.5 43.589967 -52.589966 44.5 -51.46875 44.5 L -20.53125 44.5 C -19.410033 44.5 -18.5 43.589966 -18.5 42.46875 C -18.5 42.46875 -18.5 19 -18.5 17.5 C -18.5 16 -19 13 -21 11 C -23 9 -24 8 -26 6 C -28 4 -31 3.5 -32.5 3.5 C -34 3.5 -51.468749 3.5 -51.46875 3.5 z " inkscape:radius="-0.99436891" sodipodi:type="inkscape:offset" style="fill:none;fill-opacity:1;stroke:url(#linearGradient5816);stroke-width:1;stroke-miterlimit:4;display:inline" transform="translate(-90,60)"/>
      <g id="g5539" inkscape:r_cx="true" inkscape:r_cy="true" style="opacity:0.15;fill:#000000;display:inline" transform="matrix(0.928889,0,0,1,-148.28889,60)">
        <rect height="0.9375" id="rect5549" inkscape:r_cx="true" inkscape:r_cy="true" rx="0.50463516" ry="0.46875" style="opacity:1;fill:#000000;fill-opacity:1;fill-rule:evenodd;stroke:none;stroke-width:0.99999982px;stroke-linecap:round;stroke-linejoin:round;marker:none;marker-start:none;marker-mid:none;marker-end:none;stroke-miterlimit:4;stroke-dasharray:none;stroke-dashoffset:0;stroke-opacity:1;visibility:visible;display:inline;overflow:visible" width="28.125" x="10" y="19.0625"/>
        <rect height="0.9375" id="rect5553" inkscape:r_cx="true" inkscape:r_cy="true" rx="0.50463516" ry="0.46875" style="opacity:1;fill:#000000;fill-opacity:1;fill-rule:evenodd;stroke:none;stroke-width:0.99999982px;stroke-linecap:round;stroke-linejoin:round;marker:none;marker-start:none;marker-mid:none;marker-end:none;stroke-miterlimit:4;stroke-dasharray:none;stroke-dashoffset:0;stroke-opacity:1;visibility:visible;display:inline;overflow:visible" width="28.125" x="10" y="21.0625"/>
        <rect height="0.9375" id="rect5555" inkscape:r_cx="true" inkscape:r_cy="true" rx="0.50463516" ry="0.46875" style="opacity:1;fill:#000000;fill-opacity:1;fill-rule:evenodd;stroke:none;stroke-width:0.99999982px;stroke-linecap:round;stroke-linejoin:round;marker:none;marker-start:none;marker-mid:none;marker-end:none;stroke-miterlimit:4;stroke-dasharray:none;stroke-dashoffset:0;stroke-opacity:1;visibility:visible;display:inline;overflow:visible" width="28.125" x="10" y="23.0625"/>
        <rect height="0.9375" id="rect5557" inkscape:r_cx="true" inkscape:r_cy="true" rx="0.50463516" ry="0.46875" style="opacity:1;fill:#000000;fill-opacity:1;fill-rule:evenodd;stroke:none;stroke-width:0.99999982px;stroke-linecap:round;stroke-linejoin:round;marker:none;marker-start:none;marker-mid:none;marker-end:none;stroke-miterlimit:4;stroke-dasharray:none;stroke-dashoffset:0;stroke-opacity:1;visibility:visible;display:inline;overflow:visible" width="28.125" x="10" y="25.0625"/>
        <rect height="0.9375" id="rect5559" inkscape:r_cx="true" inkscape:r_cy="true" rx="0.50463516" ry="0.46875" style="opacity:1;fill:#000000;fill-opacity:1;fill-rule:evenodd;stroke:none;stroke-width:0.99999982px;stroke-linecap:round;stroke-linejoin:round;marker:none;marker-start:none;marker-mid:none;marker-end:none;stroke-miterlimit:4;stroke-dasharray:none;stroke-dashoffset:0;stroke-opacity:1;visibility:visible;display:inline;overflow:visible" width="28.125" x="10" y="27.0625"/>
        <rect height="0.9375" id="rect5561" inkscape:r_cx="true" inkscape:r_cy="true" rx="0.50463516" ry="0.46875" style="opacity:1;fill:#000000;fill-opacity:1;fill-rule:evenodd;stroke:none;stroke-width:0.99999982px;stroke-linecap:round;stroke-linejoin:round;marker:none;marker-start:none;marker-mid:none;marker-end:none;stroke-miterlimit:4;stroke-dasharray:none;stroke-dashoffset:0;stroke-opacity:1;visibility:visible;display:inline;overflow:visible" width="28.125" x="10" y="29.0625"/>
        <rect height="0.9375" id="rect5563" inkscape:r_cx="true" inkscape:r_cy="true" rx="0.50463516" ry="0.46875" style="opacity:1;fill:#000000;fill-opacity:1;fill-rule:evenodd;stroke:none;stroke-width:0.99999982px;stroke-linecap:round;stroke-linejoin:round;marker:none;marker-start:none;marker-mid:none;marker-end:none;stroke-miterlimit:4;stroke-dasharray:none;stroke-dashoffset:0;stroke-opacity:1;visibility:visible;display:inline;overflow:visible" width="28.125" x="10" y="31.0625"/>
        <rect height="0.9375" id="rect5565" inkscape:r_cx="true" inkscape:r_cy="true" rx="0.50463516" ry="0.46875" style="opacity:1;fill:#000000;fill-opacity:1;fill-rule:evenodd;stroke:none;stroke-width:0.99999982px;stroke-linecap:round;stroke-linejoin:round;marker:none;marker-start:none;marker-mid:none;marker-end:none;stroke-miterlimit:4;stroke-dasharray:none;stroke-dashoffset:0;stroke-opacity:1;visibility:visible;display:inline;overflow:visible" width="28.125" x="10" y="33.0625"/>
        <rect height="0.9375" id="rect5567" inkscape:r_cx="true" inkscape:r_cy="true" rx="0.50463516" ry="0.46875" style="opacity:1;fill:#000000;fill-opacity:1;fill-rule:evenodd;stroke:none;stroke-width:0.99999982px;stroke-linecap:round;stroke-linejoin:round;marker:none;marker-start:none;marker-mid:none;marker-end:none;stroke-miterlimit:4;stroke-dasharray:none;stroke-dashoffset:0;stroke-opacity:1;visibility:visible;display:inline;overflow:visible" width="28.125" x="10" y="35.0625"/>
        <rect height="0.9375" id="rect5569" inkscape:r_cx="true" inkscape:r_cy="true" rx="1.0051866" ry="0.46875" style="opacity:1;fill:#000000;fill-opacity:1;fill-rule:evenodd;stroke:none;stroke-width:0.99999982px;stroke-linecap:round;stroke-linejoin:round;marker:none;marker-start:none;marker-mid:none;marker-end:none;stroke-miterlimit:4;stroke-dasharray:none;stroke-dashoffset:0;stroke-opacity:1;visibility:visible;display:inline;overflow:visible" width="12.918659" x="10" y="37.0625"/>
      </g>
    </g>
    <g id="g7666" style="opacity:0.5" transform="matrix(1.0512963,0,0,0.4615385,-3.154159,26.269239)"/>
    <g id="layer1-7" inkscape:label="Livello 1" style="display:inline;enable-background:new" transform="matrix(1.0000135,0,0,1,-2.000297,2.000003)">
      <g id="g3425" style="opacity:0.4" transform="matrix(1.0416677,0,0,0.4579337,-0.9375015,24.411627)"/>
      <path d="M 52,33.1875 A 14.625,3.3125 0 1 1 22.75,33.1875 A 14.625,3.3125 0 1 1 52,33.1875 z" id="path4331" sodipodi:cx="37.375" sodipodi:cy="33.1875" sodipodi:rx="14.625" sodipodi:ry="3.3125" sodipodi:type="arc" style="opacity:0.07000002;fill:url(#radialGradient4339);fill-opacity:1;stroke:none" transform="matrix(0.897436,0,0,0.981132,1.333333,1.688679)"/>
      <g id="g2894" transform="translate(-1.75,-1)"/>
      <g id="g2814" transform="translate(-2,-1)"/>
      <g id="g2637" inkscape:label="base" style="display:inline" transform="translate(60.78337,49.43458)"/>
      <g id="g2953" style="opacity:0.6" transform="translate(0,-1)"/>
      <g id="g6471">
        <path d="M 41.07975,28.46584 L 26.07975,32.938753 L 25.95475,33.003593 L 25.861,33.081403 L 23.111,35.934581 L 30.5485,35.091597 L 30.82975,35.065657 L 31.01725,34.987847 L 41.07975,32.304654 L 41.07975,28.465833 L 41.07975,28.46584 L 41.07975,28.46584 z" id="path2334" sodipodi:nodetypes="cccccccccc" style="opacity:0.4;fill:url(#linearGradient6482);fill-opacity:1;fill-rule:evenodd;stroke:none;display:inline"/>
        <g id="g6462">
          <g id="g6458">
            <path d="M 25.89225,30.18459 L 44.89225,11.18459 C 47.067299,11.544551 47.976969,12.916815 48.39225,14.68459 L 29.39225,33.68459 L 24.776133,34.389095 L 25.89225,30.18459 L 25.89225,30.18459 L 25.89225,30.18459 z" id="path2273" sodipodi:nodetypes="ccccccc" style="fill:url(#linearGradient6484);fill-opacity:1;fill-rule:evenodd;stroke:url(#linearGradient6486);stroke-width:1;stroke-linecap:butt;stroke-linejoin:round;stroke-miterlimit:4;stroke-dasharray:none;stroke-opacity:1"/>
            <path d="M 26.792248,30.68459 L 45.289998,12.286842 C 46.379743,12.465277 46.807259,13.274786 47.289998,14.286842 L 28.89225,32.784592 L 25.592247,33.684593 L 26.792248,30.68459 L 26.792248,30.68459 L 26.792248,30.68459 z" id="path2313" sodipodi:nodetypes="ccccccc" style="opacity:0.28235294;fill:none;stroke:#ffffff;stroke-width:1.0000006;stroke-linecap:butt;stroke-linejoin:miter;stroke-miterlimit:4;stroke-dasharray:none;stroke-opacity:1;display:inline"/>
          </g>
          <g id="g6451">
            <path d="M 24.549577,34.633026 L 26.215899,30.452717 C 26.215899,30.452717 27.415434,30.698077 28.148076,31.427806 C 28.880718,32.157535 29.146467,33.371634 29.146467,33.371634 L 24.549577,34.633026 z" id="path2298" sodipodi:nodetypes="cczcc" style="fill:url(#linearGradient6488);fill-opacity:1;fill-rule:evenodd;stroke:none"/>
            <path d="M 23,21.5 L 17.5,23 L 19.5,18" id="path5446" sodipodi:nodetypes="ccc" style="fill:none;stroke:#e9b96e;stroke-width:1;stroke-linecap:round;stroke-linejoin:round;stroke-miterlimit:4;stroke-dasharray:none;stroke-opacity:1" transform="translate(6.39225,12.18459)"/>
            <path d="M 23.95475,33.68459 L 23.0485,35.93459 L 25.39225,35.27834 C 25.39425,35.2465 25.39225,35.21693 25.39225,35.18459 C 25.39225,34.382465 24.746942,33.724789 23.95475,33.68459 z" id="path2283" sodipodi:nodetypes="cccsc" style="fill:#000000;fill-opacity:1;fill-rule:evenodd;stroke:none;display:inline"/>
          </g>
        </g>
      </g>
      <path d="M 42.821682,13.147263 C 44.655834,12.646732 46.706734,14.798738 46.271593,16.597182 L 48.46699,14.40178 C 49.533501,11.935217 47.334738,9.9920671 44.972276,10.907057 L 42.821682,13.147263 L 42.821682,13.147263 z" id="path4113-1" sodipodi:nodetypes="ccccc" style="fill:url(#radialGradient691);fill-opacity:1;fill-rule:nonzero;stroke:#ef2929;stroke-width:0.99999994;marker:none;visibility:visible;display:inline;overflow:visible;enable-background:new"/>
      <path d="M 40.561976,15.25084 C 42.498424,14.722356 44.663708,16.994546 44.204297,18.893426 L 46.522138,16.575416 C 47.276595,14.97964 44.477505,12.237921 42.832513,12.885525 L 40.561976,15.25084 L 40.561976,15.25084 z" id="path4095-8" sodipodi:nodetypes="ccccc" style="fill:url(#linearGradient649);fill-opacity:1;fill-rule:nonzero;stroke:#888a85;stroke-width:1;marker:none;visibility:visible;display:inline;overflow:visible;enable-background:new"/>
    </g>
    <path d="M 13.5,19.961848 C 6.876304,19.961848 1.5,21.850819 1.5,24.178064 C 1.5,26.505309 6.876303,28.39428 13.5,28.39428 C 16.65286,28.39428 19.514068,27.962847 21.65625,27.263368 C 21.650847,27.278368 21.644653,27.29183 21.65625,27.307287 L 22.34375,28.482118 C 22.360603,28.503589 22.391227,28.521715 22.4375,28.537017 L 27.75,30.414551 C 27.987876,30.49821 28.348854,30.520817 28.78125,30.491409 C 29.213647,30.462 29.711876,30.362067 30.25,30.172996 C 30.783683,29.985487 31.064291,29.818612 31.15625,29.667929 C 31.248207,29.517246 31.172018,29.377016 30.9375,29.294618 L 25.59375,27.428064 C 25.541256,27.409962 25.479181,27.398942 25.40625,27.395125 L 22.09375,27.164551 C 22.048714,27.16001 21.98366,27.162605 21.9375,27.164551 C 24.127803,26.400598 25.5,25.347272 25.5,24.178064 C 25.5,21.850819 20.123696,19.961848 13.5,19.961848 z" id="path2446" style="opacity:0.7;fill:url(#linearGradient3268);fill-opacity:1;fill-rule:nonzero;stroke:none;stroke-width:0.67653471;stroke-linecap:round;stroke-linejoin:round;marker:none;marker-start:none;marker-mid:none;marker-end:none;stroke-miterlimit:4;stroke-dashoffset:0;stroke-opacity:1;visibility:visible;display:inline;overflow:visible;filter:url(#filter3286)" transform="matrix(-1.0102993,0,0,0.7114512,33.015449,12.798119)"/>
    <g id="g2708" style="display:inline" transform="matrix(-1.0293169,0,0,1.0240138,91.3993,-27.294775)">
      <path d="M 75.339143,50.907296 L 78.415447,54.000183 L 83.59662,59.213677 C 83.789123,59.407381 84.56809,59.533979 85.539559,58.557427 C 86.511029,57.580875 86.435133,56.853547 86.187206,56.604322 L 81.006033,51.396043 L 78.253697,48.465923 L 75.339143,50.907296 z" id="path2682" sodipodi:nodetypes="cczzzccc" style="fill:url(#linearGradient7489);fill-opacity:1;fill-rule:nonzero;stroke:url(#linearGradient7491);stroke-width:1.0148021;stroke-linecap:round;stroke-linejoin:round;marker:none;marker-start:none;marker-mid:none;marker-end:none;stroke-miterlimit:4;stroke-dashoffset:0;stroke-opacity:1;visibility:visible;display:inline;overflow:visible"/>
    </g>
    <path d="M 12.163278,25.051356 L 9.925531,27.323913 L 4.992343,32.290155 C 4.746476,32.537669 4.712313,32.579058 4.089779,31.956491 C 3.467244,31.333923 3.51818,31.266866 3.825755,30.954421 L 8.493778,26.212475 L 10.861139,23.816287 L 12.163278,25.051356 z" id="path17267" sodipodi:nodetypes="cczzzccc" style="fill:none;fill-opacity:1;fill-rule:nonzero;stroke:url(#linearGradient7493);stroke-width:0.99997592;stroke-linecap:round;stroke-linejoin:miter;marker:none;marker-start:none;marker-mid:none;marker-end:none;stroke-miterlimit:4;stroke-dasharray:none;stroke-dashoffset:0;stroke-opacity:1;visibility:visible;display:inline;overflow:visible"/>
    <path d="M 11.916653,23.95426 C 12.089864,24.012599 14.210087,25.056077 14.1637,25.232052 L 11.079629,28.250738 C 11.062778,28.311849 11.029401,28.36719 10.98313,28.41074 L 7.764557,25.09792 C 7.81705,25.046398 7.829384,24.824958 7.902312,24.814094 L 10.364687,22.13125 C 10.427734,22.11316 11.853607,23.93617 11.916653,23.95426 z" id="path19908" sodipodi:nodetypes="cccccccc" style="opacity:0.36936939;fill:url(#linearGradient7497);fill-opacity:1;fill-rule:nonzero;stroke:none;stroke-width:0.67653471;stroke-linecap:round;stroke-linejoin:round;marker:none;marker-start:none;marker-mid:none;marker-end:none;stroke-miterlimit:4;stroke-dashoffset:0;stroke-opacity:1;visibility:visible;display:inline;overflow:visible"/>
    <path d="M 18.988704,6.000829 C 24.514483,6.000829 28.999172,10.483251 28.999172,16.006235 C 28.999172,21.529221 24.514483,26.011644 18.988704,26.011644 C 16.626383,26.011644 14.541132,25.072235 12.828419,23.702704 C 12.227601,23.170605 11.605408,22.59873 11.262679,22.1121 C 9.913879,20.407242 8.978239,18.346839 8.978239,16.006235 C 8.978239,10.483251 13.462928,6.000829 18.988704,6.000829 z M 19.040041,6.832882 C 13.853498,6.832882 10.016056,10.08253 10.016056,15.852306 C 10.016056,21.738994 13.965095,24.871732 19.040041,24.871732 C 23.998124,24.871732 28.064026,21.154452 28.064026,15.852306 C 28.064026,10.434516 24.109592,6.832882 19.040041,6.832882 z" id="path2844" sodipodi:nodetypes="cssccscczzzz" style="fill:#dcdcdc;fill-opacity:1;fill-rule:evenodd;stroke:url(#linearGradient2001);stroke-width:2.00165534;stroke-linecap:round;stroke-linejoin:miter;marker:none;marker-start:none;marker-mid:none;marker-end:none;stroke-miterlimit:10;stroke-dasharray:none;stroke-dashoffset:0;stroke-opacity:1;visibility:visible;display:inline;overflow:visible"/>
    <path d="M 19.015038,6.030986 C 24.552701,6.030986 29.047037,10.52532 29.047037,16.062981 C 29.047037,21.600644 24.552701,26.094979 19.015038,26.094979 C 16.647635,26.094979 14.5579,25.153073 12.841502,23.779904 C 12.520298,23.386835 10.719004,22.108022 11.272394,22.185073 C 9.920692,20.475683 8.983041,18.409805 8.983041,16.062981 C 8.983041,10.52532 13.477376,6.030986 19.015038,6.030986 z M 19.066485,8.191723 C 14.806744,8.191723 11.349563,11.648904 11.349563,15.908643 C 11.349563,20.168384 14.806744,23.625564 19.066485,23.625564 C 23.326226,23.625564 26.783406,20.168384 26.783406,15.908643 C 26.783406,11.648904 23.326226,8.191723 19.066485,8.191723 z" id="path4430" sodipodi:nodetypes="cssccsccsssc" style="fill:#dcdcdc;fill-opacity:1;fill-rule:evenodd;stroke:none;stroke-width:1.00000036;stroke-linecap:round;stroke-linejoin:miter;marker:none;marker-start:none;marker-mid:none;marker-end:none;stroke-miterlimit:10;stroke-dasharray:none;stroke-dashoffset:0;stroke-opacity:1;visibility:visible;display:inline;overflow:visible"/>
    <path d="M 28.549437,18.920233 A 11.048544,11.280332 0 1 1 6.4523487,18.920233 A 11.048544,11.280332 0 1 1 28.549437,18.920233 z" id="path4450" sodipodi:cx="17.500893" sodipodi:cy="18.920233" sodipodi:rx="11.048544" sodipodi:ry="11.280332" sodipodi:type="arc" style="fill:none;fill-opacity:1;fill-rule:evenodd;stroke:url(#linearGradient2005);stroke-width:1.22806156;stroke-linecap:round;stroke-linejoin:miter;marker:none;marker-start:none;marker-mid:none;marker-end:none;stroke-miterlimit:10;stroke-dasharray:none;stroke-dashoffset:0;stroke-opacity:1;visibility:visible;display:inline;overflow:visible" transform="matrix(-0.8579101,0,0,0.8402818,34.014192,0.101673)"/>
    <path d="M 25.897786,18.478292 A 8.3085051,8.3085051 0 1 1 9.280776,18.478292 A 8.3085051,8.3085051 0 1 1 25.897786,18.478292 z" id="path4452" sodipodi:cx="17.589281" sodipodi:cy="18.478292" sodipodi:rx="8.3085051" sodipodi:ry="8.3085051" sodipodi:type="arc" style="fill:url(#radialGradient2003);fill-opacity:1;fill-rule:evenodd;stroke:#3063a3;stroke-width:1.10780275;stroke-linecap:round;stroke-linejoin:miter;marker:none;marker-start:none;marker-mid:none;marker-end:none;stroke-miterlimit:10;stroke-dashoffset:0;stroke-opacity:1;visibility:visible;display:inline" transform="matrix(-0.902689,0,0,0.902689,34.877654,-0.680147)"/>
    <path d="M 18.453348,10.027621 C 23.922585,9.762456 25.346717,13.926628 24.948969,16.788406 C 24.819378,17.72081 24.685891,18.595918 24.293525,19.385909 C 23.509637,19.674841 22.676929,19.871423 21.793125,19.871423 C 17.93061,19.871423 14.249256,15.966647 14.010892,12.163884 C 15.094334,10.883548 16.646033,10.027621 18.453348,10.027621 z" id="path4462" sodipodi:nodetypes="cscscc" style="opacity:0.83422457;fill:url(#radialGradient1991);fill-opacity:1;fill-rule:evenodd;stroke:none;stroke-width:1;stroke-linecap:round;stroke-linejoin:miter;marker:none;marker-start:none;marker-mid:none;marker-end:none;stroke-miterlimit:10;stroke-dasharray:none;stroke-dashoffset:0;stroke-opacity:1;visibility:visible;display:inline;overflow:visible"/>
  </g>
</svg>
