<?xml version="1.0" encoding="iso-8859-1"?>
<!-- Generator: Adobe Illustrator 13.0.2, SVG Export Plug-In . SVG Version: 6.00 Build 14948)  --><svg height="141.732px" id="Layer_1" inkscape:output_extension="org.inkscape.output.svg.inkscape" inkscape:version="0.45+devel" sodipodi:docname="eye protection.svg" sodipodi:version="0.32" space="preserve" style="enable-background:new 0 0 141.734 141.732;" version="1.1" viewBox="0 0 141.734 141.732" width="141.734px" x="0px" xmlns="http://www.w3.org/2000/svg" xmlns:cc="http://creativecommons.org/ns#" xmlns:dc="http://purl.org/dc/elements/1.1/" xmlns:inkscape="http://www.inkscape.org/namespaces/inkscape" xmlns:rdf="http://www.w3.org/1999/02/22-rdf-syntax-ns#" xmlns:sodipodi="http://sodipodi.sourceforge.net/DTD/sodipodi-0.dtd" xmlns:svg="http://www.w3.org/2000/svg" xmlns:xlink="http://www.w3.org/1999/xlink" y="0px">
  <metadata>
    <rdf:RDF xmlns:cc="http://web.resource.org/cc/" xmlns:dc="http://purl.org/dc/elements/1.1/" xmlns:rdf="http://www.w3.org/1999/02/22-rdf-syntax-ns#">
      <cc:Work rdf:about="">
        <dc:title></dc:title>
        <dc:description></dc:description>
        <dc:subject>
          <rdf:Bag>
            <rdf:li></rdf:li>
          </rdf:Bag>
        </dc:subject>
        <dc:publisher>
          <cc:Agent rdf:about="http://openclipart.org">
            <dc:title>Source: Open Clip Art Library, Source: Open Clip Art Library</dc:title>
          </cc:Agent>
        </dc:publisher>
        <dc:creator>
          <cc:Agent>
            <dc:title></dc:title>
          </cc:Agent>
        </dc:creator>
        <dc:rights>
          <cc:Agent>
            <dc:title></dc:title>
          </cc:Agent>
        </dc:rights>
        <dc:date></dc:date>
        <dc:format>image/svg+xml</dc:format>
        <dc:type rdf:resource="http://purl.org/dc/dcmitype/StillImage"/>
        <cc:license rdf:resource="http://en.wikipedia.org/wiki/Public_domain"/>
        <dc:language>en</dc:language>
      </cc:Work>
    </rdf:RDF>
  </metadata>
  <sodipodi:namedview bordercolor="#666666" borderopacity="1.0" gridtolerance="10.0" guidetolerance="10.0" id="base" inkscape:current-layer="Layer_1" inkscape:cx="70.866997" inkscape:cy="70.866501" inkscape:pageopacity="0.0" inkscape:pageshadow="2" inkscape:window-height="649" inkscape:window-width="640" inkscape:window-x="0" inkscape:window-y="0" inkscape:zoom="3.0762066" objecttolerance="10.0" pagecolor="#ffffff" showgrid="false"></sodipodi:namedview>
  <g id="g2938" transform="translate(-4.0317332e-8,479.40124)">
    <g id="g2940" transform="translate(-11.519578,-11.519383)">
      <path d="M84.462-326.179c39.122-1.146,69.907-33.791,68.761-72.911    c-1.146-39.121-33.791-69.906-72.912-68.761c-39.121,1.146-69.906,33.791-68.76,72.912S45.342-325.032,84.462-326.179z" id="path2942" style="fill:#010101;"/>
      <path d="M84.29-330.479    c36.773-1.077,65.711-31.763,64.633-68.537c-1.075-36.772-31.762-65.712-68.537-64.634c-36.773,1.077-65.712,31.765-64.634,68.537    C16.83-358.338,47.515-329.4,84.29-330.479z" id="path2944" style="fill:#405FAB;stroke:#FFFFFF;stroke-width:3;"/>
    </g>
    <g id="g2946" transform="translate(-11.519578,-11.519383)">
      <path d="M96.178-443.474c1.33-0.284,2.851,1.235,3.421,2.565    c2.944,7.22,9.118,11.685,13.395,17.954c-0.189,5.891-2.279,12.636-2.47,18.525c1.425,0.569,0.854,2.185,0.665,3.135    c2.66,1.234,2.944,3.229,2.09,5.7c-1.994,5.699-2.755,12.255-4.18,17.765c-1.046,1.33-2.28,0.285-3.61,0.95    c-2.565,3.324-2.47,8.93-3.61,13.015c-1.045,6.175-8.645,8.36-12.35,12.54c-1.33-0.476-1.994,0.76-3.23,0.665    c-6.554,0.38-12.729-0.95-17.29-5.035c-1.234-1.33-1.899-2.755-3.609-3.895c-5.795-4.086-5.13-12.445-7.315-18.432    c-1.14-1.709-3.705-0.188-4.37-2.47c0.285-3.704-2.09-7.6-1.995-11.02c-1.234-1.806-1.33-4.94-2.564-7.221    c0.189-1.899-0.38-3.229,0.475-4.846h1.806c-1.995-2.47,2.85-2.85,1.14-5.414c-1.045-2.66-1.521-4.75-2.28-7.601l0.476-0.38    c-1.521-1.615-0.761-4.846-1.615-6.65c0.854-4.18,4.56-7.6,5.7-11.874c3.135-1.9,8.17-0.57,10.925-3.896    c1.33-0.57,0.95-2.375,2.564-2.28c0.285-1.71,1.045-3.42,2.945-3.609c4.94,0.76,9.5-4.37,14.345-0.95L96.178-443.474z" id="path2948" style="fill:#FFFFFF;"/>
      <path d="M74.233-436.634c0.76,1.521,2.944,0.569,3.229,2.279    c3.705,1.806,7.601,3.99,12.065,3.42c1.141-1.234-1.14-2.185-1.33-3.42c2.09-0.854,2.945,2.09,4.561,2.755    c1.521,0.761,3.324,1.235,5.226,1.33c0.188-1.521-1.045-2.944-0.949-4.75l0.949-0.665c1.71,0.665-0.285,2.471,1.33,3.42    c2.563,4.75,8.17,6.271,9.785,11.591c-0.476,5.225-1.71,10.545-1.521,15.771c0.284,0.284,0.664,0.284,0.854,0.665    c0.283,0.569-0.477,0.76-0.665,1.14c-1.33,0-0.95-2.186-2.472-2.47c-1.613-0.854-3.988-0.285-5.51-0.476l-0.475,1.995    c-8.267-1.806-17.48,1.995-24.795-1.521c-3.325-0.57-8.646,1.234-11.4-1.615c-2.185,0.096-4.845-0.284-6.65,1.141h-1.14    c0.665-5.51-1.9-11.399-2.945-17.101l5.7-8.265l6.84-0.19c2.28-2.09,5.32-4.465,6.365-7.79    C73.188-439.579,73.188-437.299,74.233-436.634z" id="path2950" style="fill:#405FAB;"/>
      <path d="M59.698-404.428l-1.425,1.14l-1.33-1.425    C57.418-405.759,59.603-405.664,59.698-404.428z" id="path2952" style="fill:#405FAB;"/>
      <path d="M62.168-404.714c-0.095,0.38-0.76,0.189-1.14,0.285l0.665-0.95L62.168-404.714z" id="path2954" style="fill:#405FAB;"/>
      <path d="M105.488-402.909l0.476,0.476c-1.141,1.995-2.66-1.141-4.561-0.476v-0.665    C103.398-404.334,103.493-402.053,105.488-402.909z" id="path2956" style="fill:#405FAB;"/>
      <path d="M58.558-402.434c0.38,0.57,0.475,1.234,0.189,1.806    c-1.615,0.665-3.04-2.375-3.895,0.475c0.095,2.565,1.805,4.562,1.14,7.125c0.475,2.28,2.375,3.421,4.56,3.801    c0.096,1.71,1.33,4.181,3.705,4.37c1.806,0.76,4.275,1.234,6.08,0.665c1.33,0.38,3.23,0.38,3.896-0.854    c1.52-0.285,2.85-2.471,3.895-3.42c1.045-3.04,1.235-6.365,1.141-9.881c1.614,0.285,4.369-0.284,5.51,0.95    c-0.76,3.04,0.285,6.936,0.854,10.261c3.42,3.42,8.074,5.319,13.205,4.085c1.615-0.285,3.039-1.521,3.705-2.945    c0.285-1.045,0.096-2.375,0.854-3.229c1.425,1.426,3.04-0.38,3.42-1.521c0-2.28,1.995-5.891,0.285-8.266    c-2.66,1.141-1.426,4.655-2.091,7.125c-0.476,0.285-0.664,1.046-1.329,0.854c-1.235-3.135,1.234-5.319,0.854-8.454    c0.76-2.28,3.041-0.285,4.371-0.854c4.369,3.135-0.476,7.79-0.191,11.59c-0.664,1.425-1.709,2.85-1.424,4.37    c-0.666,1.425-0.381,4.369-2.756,4.56c-1.425,0-2.945-0.284-3.8,1.14c-0.476,4.75-0.854,11.021-2.565,15.485    c-3.135,1.235-2.85,4.655-6.363,5.89c-3.137,3.23-7.41,4.562-12.351,3.896c-6.27-2.28-11.685-5.985-15.01-12.065    c-0.95-5.225-2.945-9.023-2.945-14.629c-0.854-1.806-2.944-1.046-4.37-1.521c-2.279-6.175-3.705-12.92-5.034-19.189    c1.71-0.381,1.329-2.851,3.229-2.471C56.278-401.769,57.133-402.148,58.558-402.434z" id="path2958" style="fill:#405FAB;"/>
      <path d="M75.848-401.769c0.475,4.846,2.659,11.779-2.756,14.439    c-2.755,0.854-5.984,0.38-8.645-0.476c-3.04-3.515-1.615-8.074-2.945-12.351c0.855-2.755,4.37-1.14,6.365-2.279    C70.718-401.959,73.093-402.434,75.848-401.769z" id="path2960" style="fill:#405FAB;"/>
      <path d="M84.493-401.294c0.285,0.38,0.285,0.95,0.285,1.425    c-1.615-0.189-3.61-0.285-5.32,0.381c-0.665-0.381-1.045-0.854-0.854-1.806C80.123-401.579,82.973-401.579,84.493-401.294z" id="path2962" style="fill:#405FAB;"/>
      <path d="M101.403-400.344l0.854,1.805c-0.284,4.085-0.854,8.646-2.944,12.351    c-3.325,0.665-7.41,0.761-9.976-1.614c-2.564-3.99-1.996-8.646-1.426-13.205c2.852-1.045,5.605,0,7.98,0L101.403-400.344z" id="path2964" style="fill:#405FAB;"/>
      <path d="M74.518-399.204c0.38,3.136,1.52,8.74-2.091,10.735    c-2.185,0.095-4.939,0.665-6.84-0.476c-0.76-0.57-1.234-1.521-0.665-2.28c-0.665-3.229-2.755-6.84-0.475-9.404    c3.325-0.476,5.795-0.096,9.31,0.285L74.518-399.204z" id="path2966" style="fill:#FFFFFF;"/>
      <path d="M100.454-397.589c-0.476,3.135-0.761,6.46-1.615,9.5    c-1.899,1.14-5.795,0.854-7.694,0c-0.57-1.141-1.9-2.375-1.142-3.42c0.19,0.095-0.237,0.604-0.049,0.509l-0.426-1.364    c0.381-2.85-2.09-7.124,2.09-7.313C94.467-399.584,98.933-400.249,100.454-397.589z" id="path2968" style="fill:#FFFFFF;"/>
    </g>
  </g>
</svg>
