<?xml version="1.0" encoding="UTF-8" standalone="no"?>
<!-- Generator: Adobe Illustrator 13.0.2, SVG Export Plug-In . SVG Version: 6.00 Build 14948)  --><svg enable-background="new 0 0 112 112" height="128" id="Layer_1" inkscape:output_extension="org.inkscape.output.svgz.inkscape" inkscape:version="0.45.1" sodipodi:docbase="/home/jakob/dev/kde/src/kdebase/runtime/pics/oxygen/scalable/mimetypes" sodipodi:docname="x-kde-nsplugin-generated.svgz" sodipodi:version="0.32" space="preserve" version="1.0" viewBox="0 0 112 112" width="128" x="0px" xmlns="http://www.w3.org/2000/svg" xmlns:cc="http://web.resource.org/cc/" xmlns:dc="http://purl.org/dc/elements/1.1/" xmlns:inkscape="http://www.inkscape.org/namespaces/inkscape" xmlns:rdf="http://www.w3.org/1999/02/22-rdf-syntax-ns#" xmlns:sodipodi="http://sodipodi.sourceforge.net/DTD/sodipodi-0.dtd" xmlns:svg="http://www.w3.org/2000/svg" xmlns:xlink="http://www.w3.org/1999/xlink" y="0px">
  <metadata>
    <rdf:RDF xmlns:cc="http://web.resource.org/cc/" xmlns:dc="http://purl.org/dc/elements/1.1/" xmlns:rdf="http://www.w3.org/1999/02/22-rdf-syntax-ns#">
      <cc:Work rdf:about="">
        <dc:title></dc:title>
        <dc:description></dc:description>
        <dc:subject>
          <rdf:Bag>
            <rdf:li>unsorted</rdf:li>
          </rdf:Bag>
        </dc:subject>
        <dc:publisher>
          <cc:Agent rdf:about="http://www.openclipart.org/">
            <dc:title>Open Clip Art Library, Source: Oxygen Icons, Source: Oxygen Icons, Source: Oxygen Icons, Source: Oxygen Icons</dc:title>
          </cc:Agent>
        </dc:publisher>
        <dc:creator>
          <cc:Agent>
            <dc:title></dc:title>
          </cc:Agent>
        </dc:creator>
        <dc:rights>
          <cc:Agent>
            <dc:title></dc:title>
          </cc:Agent>
        </dc:rights>
        <dc:date></dc:date>
        <dc:format>image/svg+xml</dc:format>
        <dc:type rdf:resource="http://purl.org/dc/dcmitype/StillImage"/>
        <cc:license rdf:resource="http://creativecommons.org/licenses/by-sa/3.0/ or http://creativecommons.org/licenses/LGPL/2.1/"/>
        <dc:language>en</dc:language>
      </cc:Work>
    </rdf:RDF>
  </metadata>
  <defs id="defs93">
    <linearGradient id="linearGradient13107" inkscape:collect="always">
      <stop id="stop13109" offset="0" style="stop-color:#000000;stop-opacity:1;"/>
      <stop id="stop13111" offset="1" style="stop-color:#000000;stop-opacity:0;"/>
    </linearGradient>
    <linearGradient id="linearGradient7263">
      <stop id="stop7265" offset="0" style="stop-color:#ffffff;stop-opacity:0;"/>
      <stop id="stop7267" offset="1" style="stop-color:#ffffff;stop-opacity:0.48453608;"/>
    </linearGradient>
    <linearGradient gradientUnits="userSpaceOnUse" id="linearGradient3216" inkscape:collect="always" x1="1.999" x2="109.998" xlink:href="#SVGID_9_" y1="55.862" y2="55.862"/>
    <linearGradient gradientUnits="userSpaceOnUse" id="linearGradient3218" inkscape:collect="always" x1="1.999" x2="109.998" xlink:href="#SVGID_9_" y1="55.862" y2="55.862"/>
    <linearGradient gradientUnits="userSpaceOnUse" id="linearGradient3222" inkscape:collect="always" x1="1.999" x2="109.998" xlink:href="#SVGID_9_" y1="55.862" y2="55.862"/>
    <linearGradient gradientUnits="userSpaceOnUse" id="linearGradient3226" inkscape:collect="always" x1="1.999" x2="109.998" xlink:href="#SVGID_9_" y1="55.862" y2="55.862"/>
    <linearGradient gradientUnits="userSpaceOnUse" id="linearGradient3230" inkscape:collect="always" x1="1.999" x2="109.998" xlink:href="#SVGID_9_" y1="55.862" y2="55.862"/>
    <linearGradient gradientUnits="userSpaceOnUse" id="linearGradient3234" inkscape:collect="always" x1="1.999" x2="109.998" xlink:href="#SVGID_9_" y1="55.862" y2="55.862"/>
    <linearGradient gradientUnits="userSpaceOnUse" id="linearGradient3304" inkscape:collect="always" x1="1.999" x2="109.998" xlink:href="#SVGID_9_" y1="55.862" y2="55.862"/>
    <linearGradient gradientUnits="userSpaceOnUse" id="linearGradient3306" inkscape:collect="always" x1="1.999" x2="109.998" xlink:href="#SVGID_9_" y1="55.862" y2="55.862"/>
    <linearGradient gradientUnits="userSpaceOnUse" id="linearGradient3310" inkscape:collect="always" x1="1.999" x2="109.998" xlink:href="#SVGID_9_" y1="55.862" y2="55.862"/>
    <linearGradient gradientUnits="userSpaceOnUse" id="linearGradient3314" inkscape:collect="always" x1="1.999" x2="109.998" xlink:href="#SVGID_9_" y1="55.862" y2="55.862"/>
    <linearGradient gradientUnits="userSpaceOnUse" id="linearGradient3318" inkscape:collect="always" x1="1.999" x2="109.998" xlink:href="#SVGID_9_" y1="55.862" y2="55.862"/>
    <linearGradient gradientUnits="userSpaceOnUse" id="linearGradient3322" inkscape:collect="always" x1="1.999" x2="109.998" xlink:href="#SVGID_9_" y1="55.862" y2="55.862"/>
    <filter id="filter4299" inkscape:collect="always">
      <feGaussianBlur id="feGaussianBlur4301" inkscape:collect="always" stdDeviation="0.26962705"/>
    </filter>
    <linearGradient gradientUnits="userSpaceOnUse" id="linearGradient4328" inkscape:collect="always" x1="88.745003" x2="94.44165" xlink:href="#SVGID_9_" y1="55.154892" y2="95.81353"/>
    <linearGradient gradientUnits="userSpaceOnUse" id="linearGradient4334" inkscape:collect="always" x1="91.39418" x2="89.845459" xlink:href="#SVGID_9_" y1="55.862" y2="26.322001"/>
    <linearGradient gradientUnits="userSpaceOnUse" id="linearGradient4338" inkscape:collect="always" x1="56.799774" x2="80.800003" xlink:href="#SVGID_9_" y1="11.643" y2="26.163515"/>
    <linearGradient gradientUnits="userSpaceOnUse" id="linearGradient9215" inkscape:collect="always" x1="75.195961" x2="94.433243" xlink:href="#linearGradient4344" y1="-4" y2="113.6292"/>
    <filter id="filter12134" inkscape:collect="always">
      <feGaussianBlur id="feGaussianBlur12136" inkscape:collect="always" stdDeviation="2.4"/>
    </filter>
    <linearGradient gradientUnits="userSpaceOnUse" id="linearGradient13113" inkscape:collect="always" x1="46.91169" x2="48.325901" xlink:href="#linearGradient13107" y1="116" y2="-2.5101759"/>
    <linearGradient gradientUnits="userSpaceOnUse" id="linearGradient13161" inkscape:collect="always" x1="46.91169" x2="48.325901" xlink:href="#linearGradient13107" y1="116" y2="-2.5101759"/>
    <linearGradient gradientUnits="userSpaceOnUse" id="linearGradient13163" inkscape:collect="always" x1="46.91169" x2="48.325901" xlink:href="#linearGradient13107" y1="116" y2="-2.5101759"/>
    <linearGradient gradientUnits="userSpaceOnUse" id="linearGradient13165" inkscape:collect="always" x1="75.195961" x2="94.433243" xlink:href="#linearGradient4344" y1="-4" y2="113.6292"/>
    <linearGradient gradientUnits="userSpaceOnUse" id="linearGradient13167" inkscape:collect="always" x1="75.195961" x2="94.433243" xlink:href="#linearGradient4344" y1="-4" y2="113.6292"/>
    <linearGradient gradientUnits="userSpaceOnUse" id="linearGradient13175" inkscape:collect="always" x1="91.39418" x2="89.845459" xlink:href="#SVGID_9_" y1="55.862" y2="26.322001"/>
    <linearGradient gradientUnits="userSpaceOnUse" id="linearGradient13179" inkscape:collect="always" x1="88.745003" x2="94.44165" xlink:href="#SVGID_9_" y1="55.154892" y2="95.81353"/>
    <linearGradient gradientUnits="userSpaceOnUse" id="linearGradient13183" inkscape:collect="always" x1="1.999" x2="109.998" xlink:href="#SVGID_9_" y1="55.862" y2="55.862"/>
    <linearGradient gradientUnits="userSpaceOnUse" id="linearGradient13187" inkscape:collect="always" x1="1.999" x2="109.998" xlink:href="#SVGID_9_" y1="55.862" y2="55.862"/>
    <linearGradient gradientUnits="userSpaceOnUse" id="linearGradient13191" inkscape:collect="always" x1="56.799774" x2="80.800003" xlink:href="#SVGID_9_" y1="11.643" y2="26.163515"/>
    <linearGradient gradientTransform="matrix(1.009217,0,0,0.9999274,-0.5151412,-5.9972184)" gradientUnits="userSpaceOnUse" id="linearGradient13221" inkscape:collect="always" x1="35.38496" x2="70.239304" xlink:href="#SVGID_9_" y1="13.143368" y2="69.509804"/>
    <linearGradient gradientTransform="matrix(1.0092222,0,0,0.9999326,-0.5151516,-5.9975816)" gradientUnits="userSpaceOnUse" id="linearGradient13223" inkscape:collect="always" x1="1.999" x2="109.99844" xlink:href="#linearGradient7263" y1="35.897853" y2="35.897853"/>
    <linearGradient gradientUnits="userSpaceOnUse" id="linearGradient13243" inkscape:collect="always" x1="62.578949" x2="58.966991" xlink:href="#SVGID_2_" y1="127.77134" y2="-31.68124"/>
    <linearGradient gradientUnits="userSpaceOnUse" id="linearGradient13245" inkscape:collect="always" x1="1.999" x2="109.998" xlink:href="#SVGID_9_" y1="55.862" y2="55.862"/>
    <linearGradient gradientUnits="userSpaceOnUse" id="linearGradient13247" inkscape:collect="always" x1="23.533312" x2="28.680723" xlink:href="#SVGID_9_" y1="107.83435" y2="78.514572"/>
    <linearGradient gradientUnits="userSpaceOnUse" id="linearGradient13249" inkscape:collect="always" x1="1.999" x2="109.998" xlink:href="#SVGID_9_" y1="55.862" y2="55.862"/>
    <linearGradient gradientUnits="userSpaceOnUse" id="linearGradient13251" inkscape:collect="always" x1="1.999" x2="109.998" xlink:href="#SVGID_9_" y1="55.862" y2="55.862"/>
    <linearGradient gradientUnits="userSpaceOnUse" id="linearGradient13257" inkscape:collect="always" x1="88.745003" x2="94.44165" xlink:href="#SVGID_9_" y1="55.154892" y2="95.81353"/>
    <linearGradient gradientUnits="userSpaceOnUse" id="linearGradient13259" inkscape:collect="always" x1="63.870842" x2="109.998" xlink:href="#SVGID_9_" y1="86.705002" y2="55.862"/>
    <linearGradient gradientUnits="userSpaceOnUse" id="linearGradient13265" inkscape:collect="always" x1="56.799774" x2="80.800003" xlink:href="#SVGID_9_" y1="11.643" y2="26.163515"/>
    <linearGradient gradientUnits="userSpaceOnUse" id="linearGradient13267" inkscape:collect="always" x1="45.839619" x2="109.998" xlink:href="#SVGID_9_" y1="18.38534" y2="55.862"/>
    <linearGradient gradientUnits="userSpaceOnUse" id="linearGradient13269" inkscape:collect="always" x1="91.39418" x2="89.845459" xlink:href="#SVGID_9_" y1="55.862" y2="26.322001"/>
    <linearGradient gradientUnits="userSpaceOnUse" id="linearGradient13271" inkscape:collect="always" x1="63.870842" x2="109.998" xlink:href="#SVGID_9_" y1="21.023001" y2="55.862"/>
    <filter id="filter18426" inkscape:collect="always">
      <feGaussianBlur id="feGaussianBlur18428" inkscape:collect="always" stdDeviation="1.12"/>
    </filter>
    <radialGradient cx="102" cy="112.3047" gradientTransform="matrix(1,0,0,0.9996653,-1e-7,-0.4969796)" gradientUnits="userSpaceOnUse" id="radialGradient7743" inkscape:collect="always" r="139.55859" xlink:href="#XMLID_8_"/>
    <linearGradient gradientTransform="translate(-2.1e-6,-0.4999957)" gradientUnits="userSpaceOnUse" id="linearGradient7739" inkscape:collect="always" x1="98.617439" x2="91.228737" xlink:href="#linearGradient10207" y1="106.41443" y2="99.254974"/>
    <radialGradient cx="101.1562" cy="111.1299" gradientUnits="userSpaceOnUse" id="XMLID_3_" r="137.8933">
      <stop id="stop2522" offset="0.1006" style="stop-color:#555555;stop-opacity:0.87628865;"/>
      <stop id="stop2524" offset="0.115" style="stop-color:#676767;stop-opacity:0.78350514;"/>
      <stop id="stop27" offset="0.16140001" style="stop-color:#9b9b9b;stop-opacity:0.86597937;"/>
      <stop id="stop29" offset="0.2018" style="stop-color:#c0c0c0;stop-opacity:0.85567009;"/>
      <stop id="stop31" offset="0.2341" style="stop-color:#d8d8d8;stop-opacity:0.90721649;"/>
      <stop id="stop33" offset="0.25440001" style="stop-color:#e0e0e0;stop-opacity:0.85567009;"/>
      <stop id="stop35" offset="0.31150001" style="stop-color:#ededed;stop-opacity:0.85567009;"/>
      <stop id="stop37" offset="0.4005" style="stop-color:#fafafa;stop-opacity:0.8041237;"/>
      <stop id="stop39" offset="0.47929999" style="stop-color:#ffffff;stop-opacity:0.86597937;"/>
      <stop id="stop41" offset="0.59969997" style="stop-color:#fafafa;stop-opacity:0.94845361;"/>
      <stop id="stop2534" offset="0.7219" style="stop-color:#EEEEEE"/>
      <stop id="stop2536" offset="0.8876" style="stop-color:#dddddd;stop-opacity:1;"/>
    </radialGradient>
    <linearGradient gradientUnits="userSpaceOnUse" id="XMLID_4_" x1="85.6475" x2="95.4206" y1="95.7256" y2="105.4987">
      <stop id="stop50" offset="0.3" style="stop-color:#FFFFFF"/>
      <stop id="stop2513" offset="0.60360003" style="stop-color:#f3f3f3;stop-opacity:1;"/>
      <stop id="stop2515" offset="0.74790001" style="stop-color:#eeeeee;stop-opacity:0.94509804;"/>
      <stop id="stop56" offset="0.84619999" style="stop-color:#dcdcdc;stop-opacity:0.90588236;"/>
      <stop id="stop58" offset="0.87629998" style="stop-color:#cacaca;stop-opacity:1;"/>
      <stop id="stop60" offset="0.94819999" style="stop-color:#d6d6d6;stop-opacity:0.98431373;"/>
      <stop id="stop62" offset="1" style="stop-color:#cccccc;stop-opacity:1;"/>
    </linearGradient>
    <filter id="filter2770" inkscape:collect="always">
      <feGaussianBlur id="feGaussianBlur2772" inkscape:collect="always" stdDeviation="2.0786429"/>
    </filter>
    <radialGradient cx="102" cy="112.3047" gradientTransform="matrix(1,0,0,0.9996653,2e-6,3.0160848e-3)" gradientUnits="userSpaceOnUse" id="radialGradient9437" inkscape:collect="always" r="139.55859" xlink:href="#XMLID_8_"/>
    <radialGradient cx="102" cy="112.3047" gradientUnits="userSpaceOnUse" id="XMLID_8_" r="139.55859">
      <stop id="stop7716" offset="0" style="stop-color:#b7b8b9;stop-opacity:1;"/>
      <stop id="stop47" offset="0.18851049" style="stop-color:#ECECEC"/>
      <stop id="stop49" offset="0.25718147" style="stop-color:#FAFAFA"/>
      <stop id="stop51" offset="0.30111277" style="stop-color:#FFFFFF"/>
      <stop id="stop53" offset="0.5313" style="stop-color:#FAFAFA"/>
      <stop id="stop55" offset="0.8449" style="stop-color:#EBECEC"/>
      <stop id="stop57" offset="1" style="stop-color:#E1E2E3"/>
    </radialGradient>
    <clipPath clipPathUnits="userSpaceOnUse" id="clipPath7084">
      <path d="M 72,88 L 40,120 L 32,120 L 32,80 L 72,80 L 72,88 z" id="path7086" style="fill:#000000;fill-opacity:1;fill-rule:evenodd;stroke:none;stroke-width:1px;stroke-linecap:butt;stroke-linejoin:miter;stroke-opacity:1"/>
    </clipPath>
    <filter height="1.3839999" id="filter6697" inkscape:collect="always" width="1.3839999" x="-0.19200002" y="-0.19199999">
      <feGaussianBlur id="feGaussianBlur6699" inkscape:collect="always" stdDeviation="1.9447689"/>
    </filter>
    <linearGradient gradientUnits="userSpaceOnUse" id="linearGradient10213" inkscape:collect="always" x1="98.617439" x2="91.228737" xlink:href="#linearGradient10207" y1="106.41443" y2="99.254974"/>
    <linearGradient id="linearGradient10207">
      <stop id="stop10209" offset="0" style="stop-color:#a2a2a2;stop-opacity:1;"/>
      <stop id="stop10211" offset="1" style="stop-color:#ffffff;stop-opacity:1;"/>
    </linearGradient>
    <linearGradient gradientUnits="userSpaceOnUse" id="linearGradient2633" inkscape:collect="always" x1="46.91169" x2="48.325901" xlink:href="#linearGradient13107" y1="116" y2="-2.5101759"/>
    <linearGradient gradientUnits="userSpaceOnUse" id="linearGradient2635" inkscape:collect="always" x1="46.91169" x2="48.325901" xlink:href="#linearGradient13107" y1="116" y2="-2.5101759"/>
    <linearGradient gradientUnits="userSpaceOnUse" id="linearGradient2637" inkscape:collect="always" x1="75.195961" x2="94.433243" xlink:href="#linearGradient4344" y1="-4" y2="113.6292"/>
    <linearGradient gradientUnits="userSpaceOnUse" id="linearGradient2639" inkscape:collect="always" x1="75.195961" x2="94.433243" xlink:href="#linearGradient4344" y1="-4" y2="113.6292"/>
    <linearGradient gradientUnits="userSpaceOnUse" id="linearGradient2641" inkscape:collect="always" x1="62.578949" x2="58.966991" xlink:href="#SVGID_2_" y1="127.77134" y2="-31.68124"/>
    <linearGradient gradientUnits="userSpaceOnUse" id="linearGradient2643" inkscape:collect="always" x1="62.578949" x2="58.966991" xlink:href="#SVGID_2_" y1="127.77134" y2="-31.68124"/>
    <linearGradient gradientTransform="matrix(1.009217,0,0,0.9999274,-0.5151412,-5.9972184)" gradientUnits="userSpaceOnUse" id="linearGradient2645" inkscape:collect="always" x1="35.38496" x2="70.239304" xlink:href="#SVGID_9_" y1="13.143368" y2="69.509804"/>
    <linearGradient gradientTransform="matrix(1.0092222,0,0,0.9999326,-0.5151516,-5.9975816)" gradientUnits="userSpaceOnUse" id="linearGradient2647" inkscape:collect="always" x1="1.999" x2="109.99844" xlink:href="#linearGradient7263" y1="35.897853" y2="35.897853"/>
    <linearGradient gradientUnits="userSpaceOnUse" id="linearGradient2649" inkscape:collect="always" x1="91.39418" x2="89.845459" xlink:href="#SVGID_9_" y1="55.862" y2="26.322001"/>
    <linearGradient gradientUnits="userSpaceOnUse" id="linearGradient2651" inkscape:collect="always" x1="63.870842" x2="109.998" xlink:href="#SVGID_9_" y1="21.023001" y2="55.862"/>
    <linearGradient gradientUnits="userSpaceOnUse" id="linearGradient2653" inkscape:collect="always" x1="88.745003" x2="94.44165" xlink:href="#SVGID_9_" y1="55.154892" y2="95.81353"/>
    <linearGradient gradientUnits="userSpaceOnUse" id="linearGradient2655" inkscape:collect="always" x1="63.870842" x2="109.998" xlink:href="#SVGID_9_" y1="86.705002" y2="55.862"/>
    <linearGradient gradientUnits="userSpaceOnUse" id="linearGradient2657" inkscape:collect="always" x1="1.999" x2="109.998" xlink:href="#SVGID_9_" y1="55.862" y2="55.862"/>
    <linearGradient gradientUnits="userSpaceOnUse" id="linearGradient2659" inkscape:collect="always" x1="1.999" x2="109.998" xlink:href="#SVGID_9_" y1="55.862" y2="55.862"/>
    <linearGradient gradientUnits="userSpaceOnUse" id="linearGradient2661" inkscape:collect="always" x1="1.999" x2="109.998" xlink:href="#SVGID_9_" y1="55.862" y2="55.862"/>
    <linearGradient gradientUnits="userSpaceOnUse" id="linearGradient2663" inkscape:collect="always" x1="23.533312" x2="28.680723" xlink:href="#SVGID_9_" y1="107.83435" y2="78.514572"/>
    <linearGradient gradientUnits="userSpaceOnUse" id="linearGradient2665" inkscape:collect="always" x1="56.799774" x2="80.800003" xlink:href="#SVGID_9_" y1="11.643" y2="26.163515"/>
    <linearGradient gradientUnits="userSpaceOnUse" id="linearGradient2667" inkscape:collect="always" x1="45.839619" x2="109.998" xlink:href="#SVGID_9_" y1="18.38534" y2="55.862"/>
    <radialGradient cx="102" cy="112.3047" gradientTransform="matrix(1,0,0,0.9996653,-1e-7,-0.4969796)" gradientUnits="userSpaceOnUse" id="radialGradient2744" inkscape:collect="always" r="139.55859" xlink:href="#XMLID_8_"/>
    <linearGradient gradientTransform="translate(-2.1e-6,-0.4999957)" gradientUnits="userSpaceOnUse" id="linearGradient2746" inkscape:collect="always" x1="98.617439" x2="91.228737" xlink:href="#linearGradient10207" y1="106.41443" y2="99.254974"/>
    <linearGradient gradientTransform="translate(-8.0000003,-8.4999949)" gradientUnits="userSpaceOnUse" id="linearGradient2780" inkscape:collect="always" x1="98.617439" x2="91.228737" xlink:href="#linearGradient10207" y1="106.41443" y2="99.254974"/>
    <radialGradient cx="102" cy="112.3047" gradientTransform="matrix(1,0,0,0.9996653,-7.9999983,-8.4969788)" gradientUnits="userSpaceOnUse" id="radialGradient2784" inkscape:collect="always" r="139.55859" xlink:href="#XMLID_8_"/>
  </defs>
  <sodipodi:namedview bordercolor="#666666" borderopacity="1.0" gridempspacing="4" gridtolerance="10.0" guidetolerance="10.0" height="128px" id="base" inkscape:current-layer="g3266" inkscape:cx="56" inkscape:cy="62.542861" inkscape:pageopacity="0.0" inkscape:pageshadow="2" inkscape:window-height="713" inkscape:window-width="1024" inkscape:window-x="0" inkscape:window-y="0" inkscape:zoom="2.8284271" objecttolerance="10.0" pagecolor="#ffffff" showgrid="true" width="128px"/>
  <linearGradient gradientUnits="userSpaceOnUse" id="SVGID_2_" x1="55.998501" x2="55.998501" y1="122.1953" y2="-27.688801">
    <stop id="stop13" offset="0" style="stop-color:#00892C"/>
    <stop id="stop15" offset="0.0791" style="stop-color:#259E34"/>
    <stop id="stop17" offset="0.1681" style="stop-color:#48B23B"/>
    <stop id="stop19" offset="0.2522" style="stop-color:#61C041"/>
    <stop id="stop21" offset="0.3286" style="stop-color:#71C944"/>
    <stop id="stop23" offset="0.3901" style="stop-color:#71d73a;stop-opacity:1;"/>
    <stop id="stop25" offset="1" style="stop-color:#00892C"/>
  </linearGradient>
  <linearGradient gradientUnits="userSpaceOnUse" id="SVGID_8_" x1="65.537102" x2="65.537102" y1="106.5479" y2="2.0360999">
    <stop id="stop77" offset="0" style="stop-color:#F8FFBF"/>
    <stop id="stop79" offset="0.4" style="stop-color:#FFFFFF"/>
    <stop id="stop81" offset="1" style="stop-color:#F8FFBF"/>
  </linearGradient>
  <linearGradient gradientUnits="userSpaceOnUse" id="SVGID_9_" x1="29.021" x2="70.239304" y1="6.0723" y2="69.509804">
    <stop id="stop86" offset="0" style="stop-color:#FFFFFF"/>
    <stop id="stop88" offset="1" style="stop-color:#ffffff;stop-opacity:0;"/>
  </linearGradient>
  <g id="g3266" transform="matrix(0.875,0,0,0.875,6.9999998,7)">
    <path d="M 16,8 L 16,120 C 16,120 79.15625,120 79.15625,120 L 79.1875,120 C 79.187503,120 91.09375,110.09375 96.59375,104.59375 C 102.09375,99.09375 112,87.1875 112,87.1875 L 112,87.15625 L 112,8 L 16,8 z " id="path7865" sodipodi:nodetypes="csccscccc" style="opacity:0.5;fill:#000000;fill-opacity:1;filter:url(#filter2770)" transform="matrix(1.0416667,0,0,1.0267857,-10.666667,-9.714284)"/>
    <path d="M 8.0000008,-0.4999949 L 7.9999998,111.5 C 7.9999998,111.5 71.146418,111.5 71.146418,111.5 L 104,78.646425 L 104,-0.4999949 L 8.0000008,-0.4999949 z " id="path34" sodipodi:nodetypes="cccccc" style="fill:#ffffff;fill-opacity:1"/>
    <path d="M 10.000002,0.5000085 C 9.4490018,0.5000085 9.0000018,0.9488585 9.0000018,1.4996735 L 9.0000018,109.46352 C 9.0000018,110.01533 9.4490018,110.46318 10.000002,110.46318 L 69.171999,110.46318 C 69.434999,110.46318 71.934679,110.58131 72.12068,110.39438 L 102.707,79.594207 C 102.894,79.407269 103,76.909425 103,76.646513 L 103,1.4996735 C 103,0.9488585 102.552,0.5000085 102,0.5000085 L 10.000002,0.5000085 z " id="path59" sodipodi:nodetypes="ccccccccccc" style="fill:url(#radialGradient2784);fill-opacity:1"/>
    <g id="g4174" transform="translate(-7.9999982,-7.9999992)">
      <radialGradient cx="113" cy="120" gradientUnits="userSpaceOnUse" id="XMLID_15_" r="108.4526">
        <stop id="stop4177" offset="0" style="stop-color:#BABDB6"/>
        <stop id="stop4179" offset="1" style="stop-color:#888A85"/>
      </radialGradient>
      <radialGradient cx="113" cy="120" gradientUnits="userSpaceOnUse" id="XMLID_16_" r="108.4525">
        <stop id="stop4184" offset="0" style="stop-color:#BABDB6"/>
        <stop id="stop4186" offset="1" style="stop-color:#888A85"/>
      </radialGradient>
      <radialGradient cx="113" cy="120" gradientUnits="userSpaceOnUse" id="XMLID_17_" r="108.4529">
        <stop id="stop4191" offset="0" style="stop-color:#BABDB6"/>
        <stop id="stop4193" offset="1" style="stop-color:#888A85"/>
      </radialGradient>
      <radialGradient cx="113" cy="120" gradientUnits="userSpaceOnUse" id="XMLID_18_" r="108.4526">
        <stop id="stop4198" offset="0" style="stop-color:#BABDB6"/>
        <stop id="stop4200" offset="1" style="stop-color:#888A85"/>
      </radialGradient>
      <radialGradient cx="113" cy="120" gradientUnits="userSpaceOnUse" id="XMLID_19_" r="108.4526">
        <stop id="stop4205" offset="0" style="stop-color:#BABDB6"/>
        <stop id="stop4207" offset="1" style="stop-color:#888A85"/>
      </radialGradient>
      <radialGradient cx="113" cy="120" gradientUnits="userSpaceOnUse" id="XMLID_20_" r="108.4526">
        <stop id="stop4212" offset="0" style="stop-color:#BABDB6"/>
        <stop id="stop4214" offset="1" style="stop-color:#888A85"/>
      </radialGradient>
      <radialGradient cx="113" cy="120" gradientUnits="userSpaceOnUse" id="XMLID_21_" r="108.4527">
        <stop id="stop4219" offset="0" style="stop-color:#BABDB6"/>
        <stop id="stop4221" offset="1" style="stop-color:#888A85"/>
      </radialGradient>
      <radialGradient cx="113" cy="120" gradientUnits="userSpaceOnUse" id="XMLID_22_" r="108.4528">
        <stop id="stop4226" offset="0" style="stop-color:#BABDB6"/>
        <stop id="stop4228" offset="1" style="stop-color:#888A85"/>
      </radialGradient>
      <radialGradient cx="113" cy="120" gradientUnits="userSpaceOnUse" id="XMLID_23_" r="108.4528">
        <stop id="stop4233" offset="0" style="stop-color:#BABDB6"/>
        <stop id="stop4235" offset="1" style="stop-color:#888A85"/>
      </radialGradient>
      <radialGradient cx="113" cy="120" gradientUnits="userSpaceOnUse" id="XMLID_24_" r="108.4527">
        <stop id="stop4240" offset="0" style="stop-color:#BABDB6"/>
        <stop id="stop4242" offset="1" style="stop-color:#888A85"/>
      </radialGradient>
    </g>
    <g id="g2590" transform="matrix(0.5561222,0,0,0.5561222,22.835183,21.125376)">
      <g id="g11155" style="opacity:0.5;fill:#000000;fill-opacity:1;stroke:url(#linearGradient2633);stroke-width:10.19625664;stroke-linejoin:round;stroke-miterlimit:4;stroke-dasharray:none;stroke-opacity:1;filter:url(#filter12134)" transform="translate(0,-2)">
        <linearGradient gradientUnits="userSpaceOnUse" id="linearGradient11157" style="stroke:url(#linearGradient13113)" x1="19.7563" x2="126.7421" y1="5.7275" y2="144.4818">
          <stop id="stop11159" offset="0" style="stop-color:#64ba32;stop-opacity:1;stroke:url(#linearGradient13113)"/>
          <stop id="stop11161" offset="1" style="stop-color:#00892C;stroke:url(#linearGradient13113)"/>
        </linearGradient>
        <path clip-rule="evenodd" d="M 63.718,0 C 71.232,0 78.445,0.652 82,6 C 85.555,11.348 75.978,14.839 78.645,19.459 C 85.19,22.815 101.277,22.06 112,22 C 112,22 112,53.03 112,53.376 C 106.208,56.712 100.089,51.931 95,51 C 85.395,55.274 85.348,78.515 95,82.68 C 100.722,83.13 100.419,77.649 107,78.96 C 112.013,85.694 112,112 112,112 L 22,112 C 22,112 22.422,83.565 19.538,80.682 C 16.654,77.799 14.483,85.954 7.26,84.41 C 2.943,82.345 0,78.605 0,68 C 0,57.395 2.812,52.71 7.068,50.316 C 13.635,48.93 14.699,57.379 18.178,53.9 C 21.657,50.421 22.07,34.826 22,22 C 32.448,22 45.674,24 52,19 C 52.428,13.665 48.199,13.695 48,9 C 49.149,2.904 56.22,0.222 63.718,0 z " id="path11163" style="fill:#000000;fill-opacity:1;fill-rule:evenodd;stroke:url(#linearGradient2635);stroke-width:10.19625664;stroke-linejoin:round;stroke-miterlimit:4;stroke-dasharray:none;stroke-opacity:1"/>
      </g>
      <g id="g4342" style="fill:none;stroke:url(#linearGradient2637);stroke-width:10.19625664;stroke-linejoin:round;stroke-miterlimit:4;stroke-dasharray:none;stroke-opacity:1" transform="translate(0,-4)">
        <linearGradient gradientUnits="userSpaceOnUse" id="linearGradient4344" style="stroke:url(#linearGradient9215)" x1="19.7563" x2="126.7421" y1="5.7275" y2="144.4818">
          <stop id="stop4346" offset="0" style="stop-color:#64ba32;stop-opacity:1;"/>
          <stop id="stop4348" offset="1" style="stop-color:#00892C;stroke:url(#linearGradient9215)"/>
        </linearGradient>
        <path clip-rule="evenodd" d="M 63.718,0 C 71.232,0 78.445,0.652 82,6 C 85.555,11.348 75.978,14.839 78.645,19.459 C 85.19,22.815 101.277,22.06 112,22 C 112,22 112,53.03 112,53.376 C 106.208,56.712 100.089,51.931 95,51 C 85.395,55.274 85.348,78.515 95,82.68 C 100.722,83.13 100.419,77.649 107,78.96 C 112.013,85.694 112,112 112,112 L 22,112 C 22,112 22.422,83.565 19.538,80.682 C 16.654,77.799 14.483,85.954 7.26,84.41 C 2.943,82.345 0,78.605 0,68 C 0,57.395 2.812,52.71 7.068,50.316 C 13.635,48.93 14.699,57.379 18.178,53.9 C 21.657,50.421 22.07,34.826 22,22 C 32.448,22 45.674,24 52,19 C 52.428,13.665 48.199,13.695 48,9 C 49.149,2.904 56.22,0.222 63.718,0 z " id="path4350" style="fill:none;fill-rule:evenodd;stroke:url(#linearGradient2639);stroke-width:10.19625664;stroke-linejoin:round;stroke-miterlimit:4;stroke-dasharray:none;stroke-opacity:1"/>
      </g>
      <g id="g3" style="fill:url(#linearGradient2641);filter:url(#filter18426)" transform="translate(0,-4)">
        <linearGradient gradientUnits="userSpaceOnUse" id="SVGID_1_" style="fill:url(#linearGradient13243)" x1="19.7563" x2="126.7421" y1="5.7275" y2="144.4818">
          <stop id="stop6" offset="0" style="stop-color:#76CC45;fill:url(#linearGradient13243)"/>
          <stop id="stop8" offset="1" style="stop-color:#00892C;fill:url(#linearGradient13243)"/>
        </linearGradient>
        <path clip-rule="evenodd" d="M 63.718,0 C 71.232,0 78.445,0.652 82,6 C 85.555,11.348 75.978,14.839 78.645,19.459 C 85.19,22.815 101.277,22.06 112,22 C 112,22 112,53.03 112,53.376 C 106.208,56.712 100.089,51.931 95,51 C 85.395,55.274 85.348,78.515 95,82.68 C 100.722,83.13 100.419,77.649 107,78.96 C 112.013,85.694 112,112 112,112 L 22,112 C 22,112 22.422,83.565 19.538,80.682 C 16.654,77.799 14.483,85.954 7.26,84.41 C 2.943,82.345 0,78.605 0,68 C 0,57.395 2.812,52.71 7.068,50.316 C 13.635,48.93 14.699,57.379 18.178,53.9 C 21.657,50.421 22.07,34.826 22,22 C 32.448,22 45.674,24 52,19 C 52.428,13.665 48.199,13.695 48,9 C 49.149,2.904 56.22,0.222 63.718,0 z " id="path10" style="fill:url(#linearGradient2643);fill-rule:evenodd"/>
      </g>
      <path clip-rule="evenodd" d="M 108.47928,18.045036 C 108.47121,18.045036 108.46414,18.045036 108.45708,18.045036 L 107.81521,18.053036 C 105.52429,18.084034 103.11328,18.115032 100.68005,18.115032 C 88.864141,18.115032 81.849073,17.229095 77.934321,15.239241 L 77.4065,14.96926 L 77.107772,14.460297 C 75.306319,11.364522 76.910974,8.8507039 79.038404,6.1039029 C 80.439197,4.2960347 80.948851,3.5030919 81.02858,2.6521537 C 81.049773,2.4281699 81.030598,2.2031862 80.9761,1.9852021 C 80.907474,1.7072222 80.767192,1.4132435 80.562321,1.1072657 C 77.722385,-3.1224273 71.824521,-3.994364 63.779044,-3.9963639 C 61.025899,-3.9093702 51.906615,-3.1664241 50.081951,2.6851512 C 49.984057,3.0041281 49.964882,3.3441034 50.03149,3.6710797 C 50.244435,4.7130036 50.809597,5.3829555 51.522103,6.2298944 C 52.749312,7.6837885 54.27222,9.4956574 53.977528,13.160391 L 53.908902,14.028328 L 53.217588,14.569289 C 48.912269,17.942044 42.37557,18.396011 36.548351,18.396011 C 34.030355,18.396011 31.426576,18.294019 28.850044,18.195025 C 27.809541,18.154029 26.791242,18.114032 25.799182,18.081034 C 25.77597,18.081034 25.753767,18.079034 25.730555,18.079034 C 25.209799,18.079034 24.708218,18.28002 24.330771,18.637994 C 23.937176,19.012966 23.716157,19.528929 23.71212,20.06889 C 23.599089,42.061294 21.398995,47.195921 19.260464,49.316767 C 18.284552,50.279697 17.279372,50.747663 16.18639,50.747663 C 14.451546,50.747663 13.214247,49.531751 12.11319,48.44883 L 11.91942,48.260844 L 11.54702,47.90087 C 10.410641,46.825948 9.4296827,46.161996 8.0591661,46.161996 C 7.658507,46.161996 7.2174791,46.281987 6.8824192,46.503971 C 3.2118971,48.951793 1.5022835,53.875437 1.5022835,61.997847 C 1.5022835,62.619802 1.5133849,63.212759 1.5345785,63.780717 C 31.217668,64.093694 70.03518,58.029135 110.49772,33.866889 L 110.49772,20.045892 C 110.49772,19.51193 110.28275,18.999967 109.89824,18.622995 C 109.5218,18.254021 109.01013,18.045036 108.47928,18.045036 z " id="path90" style="fill:url(#linearGradient2645);fill-rule:evenodd;stroke:url(#linearGradient2647);stroke-width:1.28035247"/>
      <g id="g31" style="fill:url(#linearGradient2649);filter:url(#filter4299)" transform="translate(0,-6)">
        <linearGradient gradientUnits="userSpaceOnUse" id="SVGID_3_" style="fill:url(#linearGradient3216)" x1="73.623001" x2="118.9906" y1="23.672899" y2="23.672899">
          <stop id="stop34" offset="0" style="stop-color:#FFFFFF;fill:url(#linearGradient3216)"/>
          <stop id="stop36" offset="1" style="stop-color:#000000;fill:url(#linearGradient3216)"/>
        </linearGradient>
        <path clip-rule="evenodd" d="M 77.314,21.023 C 77.438,21.49 77.628,21.966 77.913,22.46 L 78.209,22.969 L 78.732,23.239 C 82.611,25.229 89.562,26.115 101.27,26.115 C 103.681,26.115 106.071,26.084 108.34,26.053 L 108.976,26.045 C 108.984,26.045 108.991,26.045 108.998,26.045 C 109.353,26.045 109.696,26.147 109.998,26.322 L 109.998,26.045 C 109.998,25.511 109.785,24.999 109.404,24.622 C 109.031,24.253 108.524,24.044 107.998,24.044 C 107.99,24.044 107.983,24.044 107.976,24.044 L 107.34,24.052 C 105.07,24.083 102.681,24.114 100.27,24.114 C 88.562,24.114 81.611,23.228 77.732,21.238 L 77.314,21.023 z " id="path38" style="fill:url(#linearGradient2651);fill-rule:evenodd"/>
      </g>
      <g id="g40" style="fill:url(#linearGradient2653);filter:url(#filter4299)" transform="translate(2,-6)">
        <linearGradient gradientUnits="userSpaceOnUse" id="SVGID_4_" style="fill:url(#linearGradient3216)" x1="86.693398" x2="111.9058" y1="83.060501" y2="83.060501">
          <stop id="stop43" offset="0" style="stop-color:#FFFFFF;fill:url(#linearGradient3216)"/>
          <stop id="stop45" offset="1" style="stop-color:#000000;fill:url(#linearGradient3216)"/>
        </linearGradient>
        <path clip-rule="evenodd" d="M 95.208,86.515 L 95.513,86.648 L 95.842,86.672 C 96.125,86.694 96.395,86.705 96.652,86.705 C 99.594,86.705 101.274,85.371 102.622,84.301 C 103.601,83.521 104.245,83.038 105.18,82.843 C 105.317,82.815 105.451,82.802 105.585,82.802 C 106.084,82.802 106.547,83.005 106.91,83.332 C 106.755,82.863 106.595,82.417 106.426,82.02 C 106.108,81.27 105.374,80.802 104.585,80.802 C 104.451,80.802 104.316,80.815 104.18,80.843 C 103.245,81.038 102.602,81.521 101.622,82.301 C 100.274,83.371 98.595,84.705 95.652,84.705 C 95.395,84.705 95.126,84.694 94.842,84.672 L 94.513,84.648 L 94.208,84.515 C 91.836,83.493 90.052,81.66 88.745,79.415 C 90.08,82.559 92.163,85.202 95.208,86.515 z " id="path47" style="fill:url(#linearGradient2655);fill-rule:evenodd"/>
      </g>
      <g id="g49" style="fill:url(#linearGradient2657);filter:url(#filter4299)" transform="translate(0,-6)">
        <linearGradient gradientUnits="userSpaceOnUse" id="SVGID_5_" style="fill:url(#linearGradient3216)" x1="-3.9907" x2="69.618896" y1="47.521" y2="47.521">
          <stop id="stop52" offset="0" style="stop-color:#FFFFFF;fill:url(#linearGradient3216)"/>
          <stop id="stop54" offset="1" style="stop-color:#000000;fill:url(#linearGradient3216)"/>
        </linearGradient>
        <path clip-rule="evenodd" d="M 2.999,70 C 2.999,61.877 4.693,56.953 8.327,54.503 C 8.659,54.281 9.096,54.161 9.493,54.161 C 10.851,54.161 11.823,54.826 12.949,55.9 L 13.318,56.26 L 13.51,56.448 C 14.601,57.531 15.827,58.747 17.546,58.747 C 18.629,58.747 19.625,58.278 20.592,57.315 C 22.711,55.195 24.891,50.06 25.003,28.066 C 25.007,27.526 25.227,27.01 25.616,26.635 C 25.991,26.277 26.488,26.076 27.003,26.076 C 27.026,26.076 27.048,26.078 27.071,26.078 C 28.054,26.111 29.063,26.151 30.094,26.192 C 32.647,26.292 35.227,26.393 37.722,26.393 C 43.495,26.393 49.972,25.939 54.239,22.566 L 54.924,22.025 L 54.992,21.157 C 55.2,18.538 54.487,16.873 53.62,15.601 C 53.936,16.562 54.107,17.711 53.992,19.157 L 53.924,20.025 L 53.239,20.566 C 48.973,23.939 42.496,24.393 36.722,24.393 C 34.227,24.393 31.647,24.291 29.094,24.192 C 28.063,24.151 27.054,24.111 26.071,24.078 C 26.048,24.078 26.026,24.076 26.003,24.076 C 25.487,24.076 24.99,24.277 24.616,24.635 C 24.226,25.01 24.007,25.526 24.003,26.066 C 23.891,48.06 21.711,53.195 19.592,55.316 C 18.625,56.279 17.629,56.747 16.546,56.747 C 14.827,56.747 13.601,55.531 12.51,54.448 L 12.318,54.26 L 11.949,53.9 C 10.823,52.825 9.851,52.161 8.493,52.161 C 8.096,52.161 7.659,52.281 7.327,52.503 C 3.693,54.953 1.999,59.877 1.999,68 C 1.999,73.927 2.971,77.338 4.329,79.438 C 3.52,77.321 2.999,74.334 2.999,70 z " id="path56" style="fill:url(#linearGradient2659);fill-rule:evenodd"/>
      </g>
      <g id="g58" style="fill:url(#linearGradient2661);filter:url(#filter4299)" transform="translate(-2,-4)">
        <linearGradient gradientUnits="userSpaceOnUse" id="SVGID_6_" style="fill:url(#linearGradient3216)" x1="21.6807" x2="25.875299" y1="95.531197" y2="95.531197">
          <stop id="stop61" offset="0" style="stop-color:#FFFFFF;fill:url(#linearGradient3216)"/>
          <stop id="stop63" offset="1" style="stop-color:#000000;fill:url(#linearGradient3216)"/>
        </linearGradient>
        <path clip-rule="evenodd" d="M 22.022,81.343 C 23.062,84.495 24.117,91.695 24.041,107.991 C 24.039,108.52 24.248,109.032 24.623,109.409 C 24.748,109.534 24.892,109.634 25.042,109.721 C 25.125,88.172 23.22,82.671 22.022,81.343 z " id="path65" style="fill:url(#linearGradient2663);fill-rule:evenodd"/>
      </g>
      <g id="g67" style="fill:url(#linearGradient2665);filter:url(#filter4299)" transform="translate(0,-6)">
        <linearGradient gradientUnits="userSpaceOnUse" id="SVGID_7_" style="fill:url(#linearGradient3216)" x1="46.571301" x2="89.260399" y1="6.8223" y2="6.8223">
          <stop id="stop70" offset="0" style="stop-color:#FFFFFF;fill:url(#linearGradient3216)"/>
          <stop id="stop72" offset="1" style="stop-color:#000000;fill:url(#linearGradient3216)"/>
        </linearGradient>
        <path clip-rule="evenodd" d="M 51.082,11.643 C 51.022,11.324 51.039,10.995 51.134,10.684 C 52.942,4.832 61.979,4.089 64.706,4.002 C 72.203,4.004 77.816,4.776 80.8,8.387 C 80.794,8.252 80.779,8.116 80.746,7.985 C 80.678,7.707 80.539,7.413 80.336,7.107 C 77.522,2.877 71.678,2.005 63.706,2.003 C 60.978,2.09 51.942,2.833 50.134,8.685 C 50.037,9.004 50.018,9.344 50.084,9.671 C 50.245,10.461 50.607,11.04 51.082,11.643 z " id="path74" style="fill:url(#linearGradient2667);fill-rule:evenodd"/>
      </g>
    </g>
    <path clip-path="url(#clipPath7084)" d="M 41.879531,115.98249 C 41.879531,115.98249 66.18914,91.672876 66.18914,91.672876 C 66.18914,91.672876 56.836,94.586 46.586,94.586 C 46.586,104.836 41.879531,115.98249 41.879531,115.98249 z " id="path5540" sodipodi:nodetypes="cccc" style="opacity:0.4;fill:#000000;fill-opacity:1;filter:url(#filter6697)" transform="translate(32,-8.4999949)"/>
    <path d="M 71.172,111.5 C 71.172,111.5 83.086,101.586 88.586,96.086001 C 94.086002,90.586005 104,78.672005 104,78.672005 C 104,78.672005 90.25,87.500005 80,87.500005 C 80,97.750001 71.172,111.5 71.172,111.5 z " id="path14523" sodipodi:nodetypes="csccc" style="fill:url(#linearGradient2780);fill-opacity:1"/>
  </g>
</svg>
